<svg xmlns="http://www.w3.org/2000/svg" viewBox="0 0 3000 3000" xmlns:xlink="http://www.w3.org/1999/xlink"><script xmlns=""/><g id="tailFur"><clipPath id="tailFurClipPath"><path fill="none" d="M2518.1 1775.9c67.6-29 132.5 39.9 146.6 73.7 48 115.1-49.4 194.9-49.4 194.9-36.6 34.8-88.5 67.7-157.3 88.8-175.3 53.8-339.2-38.4-422.2-99l-34.7-24.9-36.1 140.1 220.6 76.5a852.5 852.5 0 0 0 229 11.7c98.1-8.4 186.9-29.1 266-104.6 93.6-89.2 148.9-239.5 82.8-373.6-44.5-90.3-152-191.5-273.6-171.9-89 14.4-190.9 94.4-182.7 186.5 5.8 64 64.6 132.1 133.1 133.9 48.3 1.2 112.1-30.2 112.1-73.4-.1-34.5-40.8-73.1-100.9-79.4"/></clipPath><g clip-path="url(#tailFurClipPath)"><path fill="#fcda86" d="M1904 1577.4h939v668.54h-939z"/><path d="M2527.8 2171.9c-9.2 18.2 16.9 58.7 47.9 60.4 13.4.7 32.6-5.6 38.3-21.1s-5.4-31.7-13.5-39.3c-21.8-20.2-64.1-17.1-72.7 0zM2743.9 1908.8c-11.7-7.2-40.2 8.1-43 28.8-1.2 9 1.9 22.1 12.1 26.8s21.5-1.9 27-6.9c14.6-13.5 14.8-42 3.9-48.7zM2724.6 1807.2c-5.9 44.8 78.4 110.4 144.5 91.3 28.7-8.3 64.2-35.5 64.7-72.3s-34.5-62.5-57.1-72.3c-60.4-26.2-146.6 11.4-152.1 53.3zM2297.5 2360.3c21.8 30.7 78.7 39.2 121.2 17.8 50.1-25.2 70-86.5 52.4-135.5-10.8-30-39.2-65.3-73.3-66.5-67.2-2.2-139.5 128.9-100.3 184.2zM2585 1590.1c-10.8 9.1-6.2 39.1 10.5 55.5 8.3 8.1 26.4 19.6 42 12 11.1-5.4 17.5-18.8 16.5-30-2.4-28.9-54-50.1-69-37.5zM2209.7 2154.8c5.4 22.2 37.5 38.6 66.3 34.8 27.2-3.6 56.1-25.9 56.1-56 0-23.6-17.6-45.1-37.6-51.1-40.4-12.1-93 38.6-84.8 72.3zM2472.8 1590.7c-18.4-13.6-53.6-5.5-73.2 15.8s-26.4 55.9-7.2 79c15.1 18.2 42.5 23.3 61.6 15.1 38.9-16.6 46.7-89.2 18.8-109.9zM2639.4 1903.6c-6.3-22-39.1-37-67.7-32-27.1 4.7-55 28.2-53.8 58.3.9 23.6 19.5 44.3 39.7 49.5 40.9 10.4 91.3-42.4 81.8-75.8zM2700.8 1715.4c-10.2-2.9-24.2 6.3-29.2 18.8s-2.4 28.5 9.7 35.5c9.5 5.4 22.2 3.2 29.2-3.5 14.1-13.6 5.8-46.4-9.7-50.8zM2530.5 1656.1c-6.1 3.1-8.7 13.6-5.6 21.7s11.4 14.6 20.2 12.6a16.6 16.6 0 0 0 12.3-14.4c.8-12.7-17.6-24.6-26.9-19.9zM1984.6 2357.1c43.6 21.3 113.9-8.9 146.7-61 31-49.3 33.7-126.7-15.3-167.6-38.5-32.1-97.5-32.4-134.3-7.9-74.6 49.6-63.3 204.1 2.9 236.5z" fill="#385877"/><path d="M2435.1 2025c43.6 21.3 113.9-8.9 146.7-61 31-49.3 33.7-126.7-15.3-167.6-38.5-32.1-97.5-32.4-134.3-7.9-74.6 49.7-63.3 204.2 2.9 236.5zM2389.4 1751.1c-5.4-12.5-33.4-19.4-49.9-6.1-14.9 11.9-17.1 37.3-6.6 46.6 5.9 5.3 14.5 4.3 17.6 3.9 22.9-2.6 45.2-29.8 38.9-44.4zM2608.8 2047c-13.6-1.2-45.2 27.9-29.1 52.7 7 10.7 23.5 18.5 33.3 13.1 19.9-10.9 17.4-63.9-4.2-65.8zM2565.9 1727.1c-16.8 3.9-32 28.3-25.5 46.5s29.6 21.2 37.5 22.5c11.4 1.8 18.8 6.6 33.3-13.9 41.4-58.6-17.5-61.6-45.3-55.1zM2673.4 2060.9c-7.1 24.9 6.5 59.9 33.5 67s52.3-18.8 61.8-38.7 12.5-48.1-2.6-61.8c-21.9-20-81.8-4.7-92.7 33.5z" fill="#385877"/><defs><linearGradient id="tailShadowGradient" x1="2364.15" y1="2291.47" x2="2364.15" y2="2013.47" gradientUnits="userSpaceOnUse"><stop offset="0" stop-color="gray"/><stop offset=".27" stop-color="#7d7d7d"/><stop offset=".46" stop-color="#747474"/><stop offset=".64" stop-color="#646464"/><stop offset=".8" stop-color="#4d4d4d"/><stop offset=".95" stop-color="#303030"/><stop offset="1" stop-color="#242424"/></linearGradient><linearGradient id="tailShadowGradient2" x1="2579.15" y1="1935.2" x2="2579.15" y2="1441.6" gradientUnits="userSpaceOnUse"><stop offset="0" stop-color="#fff" stop-opacity="0"/><stop offset=".72" stop-color="#fff"/></linearGradient><linearGradient id="tailShadowGradient3" x1="2583.8" y1="2124.84" x2="2583.8" y2="1726.66" href="#tailShadowGradient" xlink:href="#tailShadowGradient"/></defs><g clip-path="url(#tailShadowClipPath)" style="mix-blend-mode:overlay"><path d="M2307.1 1774.1s77.1-188.9 277.1-114.6 203.7 275.7 203.7 275.7l134.3-263.7-234-212.5-344-17.4-108 123.9z" opacity=".35" fill="url(#tailShadowGradient2)" style="mix-blend-mode:overlay"/></g><g clip-path="url(#tailShadowClipPath)" style="mix-blend-mode:multiply"><path d="M2135.9 2084.1c107 52 71.6 104 199.2 113.8 208.3 32.6 329.5-41.9 390.8-121l100.2-44.4-96 259-828-9.1 54-268.9s122.5 42.7 179.8 70.6z" opacity=".25" fill="url(#tailShadowGradient)" style="mix-blend-mode:multiply"/><path d="M2519.6 1734.3c8.4-2.3 109.1-43.4 164.5 92.2 57.5 140.6-26.3 224.4-201.1 298.4l96.1-317.4s-20.1-11.2-61-31.6-52.7-18.9-52.7-18.9 20.5-10.4 54.2-22.7z" opacity=".25" fill="url(#tailShadowGradient3)" style="mix-blend-mode:multiply"/></g></g></g><g id="tail"><path d="M2515.9 1770l5.8-2.2 1.6-.5 1.6-.5 3.3-1 3.3-.8 3.2-.7 3.3-.6 3.3-.5a92.5 92.5 0 0 1 26.4.8 110 110 0 0 1 25 7.6 138.2 138.2 0 0 1 22.6 12.5 169 169 0 0 1 20 16 181.2 181.2 0 0 1 17.5 18.7 139.6 139.6 0 0 1 14.5 21.4l1.5 3 1.4 3.1.3.8v.9l.6 1.4 1.1 2.9 2.2 5.8 2 6.2 1 3.1c.3 1 .7 2.1.9 3.1l1.5 6.2.8 3.1.6 3.2 1.1 6.3c.4 2.1.5 4.2.8 6.4l.4 3.2.2 1.6v1.6l.3 6.4v6.4a154.3 154.3 0 0 1-2.3 25.6l-1.2 6.3c-.5 2.1-1 4.2-1.5 6.2s-.5 2.1-.8 3.1l-.9 3.1-.9 3.1-.5 1.5-.5 1.5-2.1 6-2.4 5.9c-.8 2-1.7 3.9-2.6 5.8l-1.3 2.9-1.4 2.9a193.8 193.8 0 0 1-12.9 22 213.5 213.5 0 0 1-15.5 20.2c-2.8 3.2-5.6 6.3-8.6 9.4l-4.6 4.5-2.4 2.2-2.6 2.2.3-.3a366.6 366.6 0 0 1-68.8 51 404.9 404.9 0 0 1-38.1 19.4q-19.5 8.7-39.8 15.6l-10.2 3.3-2.5.8h-.8l-.6.2-1.3.4-5.1 1.4-10.2 2.8-10.5 2.5-5.3 1.2-5.3 1-10.5 2-10.6 1.5-5.3.7-5.3.6-10.7 1-10.7.6c-7.1.5-14.3.4-21.4.5l-10.7-.3-5.4-.2-5.3-.3-10.7-.7-10.6-1.1-5.3-.6-5.3-.7-10.6-1.5c-7-1.3-14.1-2.4-21-4-14-2.8-27.7-6.5-41.4-10.6l-10.2-3.2-10.1-3.4c-3.4-1.1-6.7-2.4-10-3.6s-6.7-2.4-10-3.8l-9.9-4-9.8-4.2-9.7-4.4-9.7-4.5c-12.8-6.1-25.4-12.7-37.8-19.6s-24.5-14.3-36.5-21.9-23.6-15.7-35-24l-34.2-24.6 9.7-3.5-35.8 140.3-4-7.5 220.6 76.5-.9-.2a866.3 866.3 0 0 0 126.3 14q31.8 1.1 63.6-.1c21.2-.8 42.3-2.5 63.4-4.9a628.3 628.3 0 0 0 62.5-10 412.3 412.3 0 0 0 60.4-18 344.9 344.9 0 0 0 56.3-27.9 331.7 331.7 0 0 0 50.1-37.9l5.8-5.3.7-.7.4-.3.3-.3 1.4-1.4 2.8-2.8c3.9-3.7 7.4-7.5 11-11.3l1.3-1.4 1.3-1.5 2.6-2.9c1.7-2 3.5-3.9 5.2-5.9 3.3-4.1 6.8-8 9.9-12.2l4.8-6.2 4.6-6.4 2.3-3.2 2.2-3.3 4.4-6.5c5.6-8.9 11.1-17.8 16-27.1 2.5-4.6 4.8-9.3 7.1-14 1.2-2.3 2.2-4.8 3.3-7.1s2.2-4.8 3.2-7.2l3-7.3 1.5-3.6 1.4-3.7 2.7-7.4 2.4-7.5c1.7-5 3-10 4.5-15.1.4-1.3.7-2.5 1-3.8l.9-3.8c.6-2.5 1.3-5.1 1.8-7.6l1.6-7.7c.2-1.3.6-2.6.7-3.9l.6-3.9 1.2-7.7.9-7.8a282.3 282.3 0 0 0 .3-62.5l-.4-3.9c-.1-1.3-.4-2.6-.5-3.9l-1.1-7.7-.3-1.9-.4-1.9-.8-3.8c-.5-2.6-.9-5.1-1.5-7.7l-1.9-7.6-.9-3.8-1.1-3.8-2.2-7.5c-.3-1.3-.8-2.5-1.2-3.7l-1.3-3.7c-13.7-39.4-36.7-75.5-64.5-106.9-7-7.8-14.4-15.3-22-22.5s-15.7-13.9-23.9-20.4-16.9-12.3-25.8-17.8l-6.7-4-3.4-2-3.5-1.8c-2.3-1.2-4.6-2.5-6.9-3.6l-7-3.4-3.6-1.6-3.6-1.5-3.6-1.5-3.6-1.4-7.3-2.7-7.4-2.4c-2.5-.8-5-1.4-7.5-2.1s-5-1.4-7.5-1.9l-7.6-1.6-7.7-1.2a183.9 183.9 0 0 0-30.9-1.9h-3.9l-3.9.3-7.7.6-7.7 1-1.9.3h-.8l-1 .2-3.9.7-3.9.7-3.7.9-3.7.8-3.8 1c-2.5.7-5 1.3-7.5 2.1s-5 1.5-7.4 2.4a238.4 238.4 0 0 0-28.8 12 265.3 265.3 0 0 0-27.2 15.4l-6.5 4.3-6.4 4.5-6.2 4.8c-2.1 1.6-4 3.3-6 5a224.5 224.5 0 0 0-22.3 21.7 177.5 177.5 0 0 0-18.6 24.7c-10.9 17.4-18.4 36.9-20.4 57.1-.2 2.5-.6 5-.5 7.6v7.6l.2 3.8v3.7l.5 4c.2 1.3.4 2.5.6 3.7s1 4.9 1.5 7.4.6 2.5.9 3.7.6 2.5 1 3.7 1.5 4.9 2.4 7.3l1.3 3.6 1.5 3.6a154.6 154.6 0 0 0 14.6 27 157 157 0 0 0 19.6 23.7c3.6 3.7 7.4 7 11.4 10.3a147.3 147.3 0 0 0 12.4 9 140.1 140.1 0 0 0 13.2 7.6 124 124 0 0 0 14 5.9 116.7 116.7 0 0 0 14.5 4 105 105 0 0 0 14.9 1.9h11.3l3.8-.3a138.1 138.1 0 0 0 15.1-2.2 144.7 144.7 0 0 0 14.8-3.8 136.8 136.8 0 0 0 14.4-5.3 118.7 118.7 0 0 0 26.2-15.3c7.9-6.1 14.7-13.6 19-22.1a42.5 42.5 0 0 0 4.2-13.3v-7.1a7.8 7.8 0 0 0-.1-.9v-.8c-.1-.6-.1-1.1-.2-1.7s-.3-2.3-.6-3.5a55 55 0 0 0-5.1-13.6 71.7 71.7 0 0 0-8.3-12.4 102 102 0 0 0-22.9-20.1 132.7 132.7 0 0 0-27.8-13.7q-7.4-2.6-15-4.5c-5.1-1.2-10.2-2.2-15.4-3a2.5 2.5 0 0 1 .6-5c21.6 1.5 43.2 7.6 62.3 18.9a106.8 106.8 0 0 1 25.9 21 81.9 81.9 0 0 1 10 13.8 65.5 65.5 0 0 1 6.5 16.1c.4 1.4.6 2.9.9 4.3s.4 3.2.6 4.6v8.8a52.1 52.1 0 0 1-4.9 17.2 68.6 68.6 0 0 1-9.6 14.7 89.8 89.8 0 0 1-12.3 11.9 128.7 128.7 0 0 1-28.7 17.4 154.4 154.4 0 0 1-31.7 10.3 151.2 151.2 0 0 1-16.6 2.5l-4.2.3-4.3.2h-8.4a118.3 118.3 0 0 1-16.8-2.1 124 124 0 0 1-16.3-4.6 137.3 137.3 0 0 1-15.5-6.6 147.7 147.7 0 0 1-14.5-8.4 160.3 160.3 0 0 1-13.4-9.9c-4.2-3.6-8.4-7.3-12.3-11.3a171.7 171.7 0 0 1-21-25.7 167.3 167.3 0 0 1-15.7-29.3l-1.6-3.9-1.4-3.9c-1-2.6-1.7-5.3-2.6-7.9s-.7-2.7-1.1-4-.7-2.7-1-4.1-1.2-5.4-1.6-8.3-.5-2.9-.7-4.2l-.5-4v-4.5l-.2-4.2v-8.4c0-2.8.3-5.6.6-8.4a135 135 0 0 1 7.6-32.6 161.5 161.5 0 0 1 14.7-29.9 190 190 0 0 1 19.9-26.4 236.9 236.9 0 0 1 23.6-22.9c2.1-1.7 4.2-3.5 6.3-5.2l6.5-5 6.7-4.8 6.8-4.6a277.8 277.8 0 0 1 28.5-16.2 250.9 250.9 0 0 1 30.3-12.6c2.6-1 5.2-1.7 7.8-2.5s5.3-1.5 7.9-2.3l4-1.1 4.1-.9 4.1-.9 4-.7 3.9-.7 1-.2h1.2l2-.3 8.2-1.1 8.2-.6 4.1-.3h4.1a196.3 196.3 0 0 1 32.9 2l8.2 1.3 8.1 1.7c2.7.5 5.3 1.3 8 2s5.3 1.3 7.9 2.2l7.8 2.5 7.7 2.8 3.8 1.5 3.8 1.6 3.8 1.6 3.7 1.7 7.4 3.5c2.5 1.2 4.8 2.5 7.3 3.8l3.6 1.9 3.5 2.1 7.1 4.1c9.3 5.7 18.2 12 26.9 18.6s16.9 13.7 24.8 21.2 15.5 15.2 22.7 23.3 14.1 16.5 20.6 25.2 12.6 17.7 18.3 27c2.8 4.7 5.6 9.3 8.2 14.2l2 3.6 1.8 3.6 1.8 3.6.5.9.3.5.2.5.9 1.9 3.4 7.4c.6 1.2 1.2 2.5 1.7 3.7l1.5 3.8 3.1 7.6c1 2.5 1.8 5.1 2.7 7.7l1.4 3.9c.5 1.3.9 2.6 1.3 3.9l2.3 7.8 1.2 3.9 1 4 1.9 8c.6 2.7 1.1 5.4 1.6 8l.8 4 .4 2 .3 2 1.2 8.1c.2 1.4.4 2.7.6 4.1l.4 4.1a294.8 294.8 0 0 1-.3 65.3l-1 8.1-1.3 8.1-.6 4c-.2 1.3-.5 2.7-.8 4l-1.6 8c-.5 2.7-1.3 5.3-1.9 7.9l-1 4c-.3 1.3-.6 2.6-1 3.9-1.5 5.2-2.9 10.5-4.6 15.6l-2.5 7.7-2.8 7.7-1.4 3.8-1.5 3.8-3.1 7.5c-1.1 2.5-2.2 5-3.3 7.4s-2.2 5-3.4 7.4c-2.4 4.9-4.7 9.8-7.4 14.5-5 9.6-10.7 18.9-16.5 28.1l-4.5 6.8-2.3 3.4-2.4 3.3-4.8 6.6-5 6.5c-3.3 4.3-6.8 8.5-10.2 12.7-1.7 2.1-3.6 4.1-5.4 6.1l-2.7 3-1.4 1.5-1.4 1.5c-3.8 4-7.5 8-11.3 11.7l-2.8 2.8-1.4 1.4-.4.4-.4.3-.8.7-6 5.5a344.1 344.1 0 0 1-51.9 39.3 357.4 357.4 0 0 1-58.3 28.9 424.8 424.8 0 0 1-62.2 18.6 640.4 640.4 0 0 1-63.9 10.3c-21.3 2.4-42.8 4.1-64.3 5s-43 .9-64.5.1a878.7 878.7 0 0 1-128.1-14.2h-.5l-.4-.2-220.6-76.5-5.4-1.9 1.4-5.6 36.2-140.2 2.3-8.8 7.4 5.3 34.2 24.6c11.3 8.3 22.8 16.1 34.5 23.7s23.7 14.7 35.8 21.5 24.5 13.3 37 19.3l9.5 4.4 9.5 4.3 9.6 4.1 9.7 3.9c3.2 1.3 6.5 2.5 9.7 3.7s6.5 2.5 9.8 3.5l9.9 3.4 9.9 3.1c13.3 4 26.7 7.6 40.3 10.4 6.8 1.5 13.6 2.6 20.4 3.9l10.3 1.5 5.1.7 5.2.5 10.3 1.1 10.4.7 5.2.3 5.2.2 10.4.3c6.9-.1 13.8 0 20.7-.5l10.4-.6 10.3-1 5.2-.5 5.1-.7 10.3-1.5 10.2-1.9 5.1-.9 5-1.2 10-2.3 10.1-2.8 5.1-1.4 1.3-.4.6-.2h.5l2.5-.8 9.9-3.2q19.7-6.7 38.7-15.2a392.4 392.4 0 0 0 37-18.8 354.1 354.1 0 0 0 65.7-49.9h.1l.2-.2 2.1-1.8 2.2-2 4.2-4.2c2.8-2.8 5.5-5.8 8.1-8.8a201 201 0 0 0 14.5-19 181.3 181.3 0 0 0 12.1-20.6l1.3-2.7 1.2-2.7c.8-1.8 1.7-3.6 2.4-5.5l2.2-5.5 2-5.6.5-1.4.4-1.4.9-2.8.9-2.8c.3-.9.5-1.9.7-2.9s1-3.8 1.4-5.8l1.1-5.8a141.8 141.8 0 0 0 2.1-23.6v-6l-.3-5.9v-1.5l-.2-1.5-.3-2.9c-.2-2-.4-3.9-.7-5.9l-1-5.8-.5-2.9-.7-2.9-1.4-5.8c-.2-1-.5-1.9-.8-2.8l-.9-2.8-1.7-5.6-2.2-5.8-1.1-2.9-.6-1.4v-.7l-.3-.6-1.2-2.6-1.3-2.5a127.3 127.3 0 0 0-13.2-19.4 164.1 164.1 0 0 0-34.8-32.2c-13-8.8-27.6-15.5-42.7-18.1a79.9 79.9 0 0 0-22.8-.7l-2.8.4-2.8.5-2.8.6-2.7.7-2.6.8-1.3.4-1.4.5-5.8 2.2a6.3 6.3 0 0 1-4.8-11.8z" fill="#31323d"/></g><g id="bodyFur"><clipPath id="furClipPath"><path d="M1717.4,967.2a241.5,241.5,0,0,1,13.7,36.8l16.7,65.1c7.6,32.4,19.5,65.2,43.6,88.3s53.4,39.9,79.7,60.6c90,71,134.4,191.2,118.8,304.8a216.3,216.3,0,0,0-72.9-76.1,126.4,126.4,0,0,1,25.7,66.1c-17.8-23.2-42.8-40.6-70.5-49.9h0l36,117.2,29.7,96.5,88.4,287.5a248.1,248.1,0,0,1-6.4,155.8l0.8,0.3c47.5,13.8,136.8,46.1,179.8,75.5,26.1,17.8,10.1,55.9-23.2,55.3l-261.5-5.1a246.8,246.8,0,0,1-65.4,28.1h0c2.8,13.3,12.3,21,28.1,21.9,18.2,1,23.7,18.6,24.5,25.5,2.3,21.2-5.8,34.7-27.9,36.9l-91.8,3a53.5,53.5,0,0,1-22.3-4,71.6,71.6,0,0,1-43.1-54.3l-3.5-20.7H1180.9l-5,26.6a71.4,71.4,0,0,1-8.8,23.9c-13.4,22.8-38.9,35.7-65.3,34.1l-84.3-5c-21.4-1.6-31.9-18.9-27.2-40.4,2.5-11.1,15.1-20.3,30.6-21.1,23.3-1.2,30.3-20.2,29.9-43.6l-0.2-3.4q-7-3.7-13.8-7.9L770,2251c-33.3.6-49.7-38.2-23.2-55.3,54-34.9,146.4-69.2,184.5-78.3l0.6-.3a248.9,248.9,0,0,1-12.6-117.5l60-315.5,17.1-89.7,22.2-116.6h0a194.9,194.9,0,0,0-45.8,61.9,195.9,195.9,0,0,1-12.1-91.8c-29,28-43.4,70.4-37.5,110.3-24.9-52.2-30.8-112.6-20.3-169.4s36.8-110.3,72.6-155.7c27.5-34.9,58.2-64.9,83.6-101.2a279.5,279.5,0,0,0,36.4-73.3h0a294.5,294.5,0,0,0,9.2-35.4,240.6,240.6,0,0,1,11.7-40.5l-1.2-.5c-35.7-28.7-68.4-55.4-104.1-84.1-9.7-7.8-20.2-17-21.5-29.4-1.7-17.5,15.7-30.7,32.2-36.6,30.4-10.8,64.3-9.4,95.3-.4a291.9,291.9,0,0,1,85.2,40.3l0.3,0.4a240.6,240.6,0,0,1,71.6-34.3l7.7-2.8c-7.8-12.3-20.7-26.1-41.9-36,0,0,48-47.3,118.7-5,0,0-13.9-74.7-69.4-76.7,0,0,121.4-43.7,189.4,56,0,0,17-35.7,3.3-51,0,0,76.2,25.4,63.8,109.8l8.6,2.6a240.7,240.7,0,0,1,72.7,30.3l3.4-3.1a291.9,291.9,0,0,1,81.5-47.3c30.1-11.5,63.8-15.8,95-7.7,17,4.4,35.4,16.2,35.2,33.7-0.2,12.5-9.8,22.5-18.9,31.1-33.1,31.6-71.5,64-104.6,95.6Z" fill="none"/></clipPath><g clip-path="url(#furClipPath)"><path fill="#fcda86" d="M724.1 562.8h1509.4v1824.09H724.1z"/><ellipse cx="1280.5" cy="1837.3" rx="52.4" ry="46.2" fill="#385877"/><path d="M1438.8 1814.4c-2.3 17.7 30.9 43.6 57 36 11.3-3.3 25.3-14 25.5-28.5s-13.6-24.6-22.5-28.5c-23.8-10.4-57.8 4.5-60 21zM1684.2 2256.9c-2.3 17.7 30.9 43.6 57 36 11.3-3.3 25.3-14 25.5-28.5s-13.6-24.6-22.5-28.5c-23.8-10.4-57.8 4.4-60 21zM1119.8 2191.4c-2.3 17.7 30.9 43.6 57 36 11.3-3.3 25.3-14 25.5-28.5s-13.6-24.6-22.5-28.5c-23.9-10.3-57.8 4.5-60 21zM1190.8 1573.7c-23.9 26.2-21.5 93 14.2 101.4 15.5 3.6 42.7-2.4 60.5-25.2s16.1-49.6 11.8-62.7c-11.7-35-64.2-38-86.5-13.5zM808.1 2140.3c.4 35.4 47.6 82.8 79.5 64.6 13.8-7.9 29.6-30.9 27.1-59.7s-22-47.3-34.1-53.9c-32.3-17.6-72.8 15.9-72.5 49zM1916 1880c-5.9 44.8 78.4 110.4 144.5 91.3 28.7-8.3 64.2-35.5 64.7-72.3s-34.5-62.5-57.1-72.3c-60.4-26.2-146.5 11.4-152.1 53.3zM1765.9 1483.4c-26.2 27.1-24 84.6 5 122.4 34 44.6 98 52.7 142.8 26.4 27.5-16.2 56.9-50.7 51.7-84.4-10.2-66.4-152.4-113.2-199.5-64.4zM859.2 1747.2c-32.7 18.6-46.8 74.4-29.6 118.9 20.1 52.3 79.2 78.2 129.6 65.5 30.9-7.8 68.9-32.6 73.4-66.4 8.9-66.6-114.4-151.5-173.4-118zM1497.9 1490.1c-25.8 7-45.4 43-41.5 76.6 4.6 39.6 40.7 67.9 77.7 68.1 22.7.1 53.2-10.3 62.3-32.7 17.9-44.3-52-124.6-98.5-112zM2023.7 2195.7c-25.8 7-45.4 43-41.5 76.6 4.6 39.6 40.7 67.9 77.7 68.1 22.7.1 53.2-10.3 62.3-32.7 17.9-44.4-52-124.6-98.5-112zM1776.5 1662.9c-10.8 9.1-6.2 39.1 10.5 55.5 8.3 8.1 26.4 19.6 42 12 11.1-5.4 17.5-18.8 16.5-30-2.5-28.9-54.1-50.1-69-37.5zM1093.3 1692.3c-22.7 3.2-42.1 33.5-41.2 62.6.9 27.5 20.3 58.4 50.2 61.4 23.5 2.4 46.6-13.1 54.5-32.4 16.1-39.1-29.1-96.4-63.5-91.6zM1674.2 1673.5c-18.4-13.6-53.6-5.5-73.2 15.8s-26.4 55.9-7.2 79c15.1 18.2 42.5 23.3 61.6 15.1 38.9-16.6 46.8-89.2 18.8-109.9zM1830.8 1976.4c-6.3-22-39.1-37-67.7-32-27.1 4.7-55 28.2-53.8 58.3.9 23.6 19.5 44.3 39.7 49.5 40.9 10.4 91.4-42.4 81.8-75.8zM1983.7 1659.4c-22-6.3-52.1 13.6-63 40.5s-5.2 61.6 21 76.5c20.5 11.7 47.9 6.9 63-7.5 30.5-29.2 12.4-100-21-109.5zM893.3 1436.2c-25.5 41.3-2.4 114.2 46.3 152 46 35.7 122.7 46.1 168.3 1.3 35.7-35.1 41.8-93.8 21.1-132.9-42.1-79.1-197-83-235.7-20.4zM1073.9 1945.7c33.2-22.1 88.7 6 91.7 32.1 1.9 17.2-19.2 31.8-22.9 34.4-28 19.3-76.5 18.5-89.4-6.9-9.4-18.5 1.7-47 20.6-59.6zM1413 906.9c-13.1 16-13.4 46 1.5 63 20.2 23.1 59.2 12.2 70.5 9 27.4-7.7 63-30.3 60-49.5-4.6-29.6-102.6-58.3-132-22.5zM1256.7 913c-8.8 14.8 10 47.9 29.9 47.1 10.4-.4 19.6-10 23.5-19.2.8-1.8 6.3-15.2 0-25.7-10.1-16.9-45-16.2-53.4-2.2zM1377.6 1023.9c-16.5 11.9-20.3 47.6-4.3 64.1 11.8 12.1 30.9 10.2 47 8.5 2.3-.2 50.5-5.5 53.4-23.5 3.7-23.1-67.7-69.5-96.1-49.1zM1687.2 714.5c-9.5 5.2-68 80.6-80.2 92.9-9.3 9.3-56.3 15.7-52.7 27.6 35.2 117.3 136.4 156.6 185.4 165.5 28 5.1 90-7 150.5-110.2 33.9-57.9 22.4-136.5-4-160.5-15.1-13.8 74.8-20.3-64-25.5-30.8-1.2-107.2-5.1-135 10.2z" fill="#385877"/><path d="M1603.3 850.4l50.8 36.4 49.3 52.7 49.3 76.7 38.9 63.3c5.2-8.1 1193.7-742.5 1192.4-747.9-2-8.7 0-319.9 0-319.9H1959.8zM1354 1658.9c-10.3 8.9-8.6 37.6 9 49.5 15.8 10.6 40.7 5.2 46.5-7.5 3.3-7.2-.2-15.1-1.5-18-9.3-21.1-41.9-34.4-54-24zM1650.8 1853.9c-5.4-12.5-33.4-19.4-49.9-6.1-14.9 11.9-17.1 37.3-6.6 46.6 5.9 5.3 14.5 4.3 17.6 3.9 23-2.6 45.3-29.8 38.9-44.4zM863 2012.4c17-20.8 64.5-18.8 87 6 14.9 16.4 15 38.4 15 46.5 0 11.5.1 31.2-13.5 42-18.9 15.1-49.2.9-51 0-34.9-17-57.2-70.4-37.5-94.5zM1800.2 2119.8c-13.6-1.2-45.2 27.9-29.1 52.7 7 10.7 23.5 18.5 33.3 13.1 20-10.9 17.5-63.9-4.2-65.8zM1757.3 1799.9c-16.8 3.9-32 28.3-25.5 46.5s29.6 21.2 37.5 22.5c11.4 1.8 36.3 2.7 42-9 8.7-17.8-26.2-66.5-54-60zM2039 2096.9c-16.8 3.9-32 28.3-25.5 46.5s29.6 21.2 37.5 22.5c11.4 1.8 36.3 2.7 42-9 8.7-17.8-26.2-66.5-54-60z" fill="#385877"/><path d="M1156.9 2405.5l71.7-361.7a137.3 137.3 0 0 1 134.7-110.6H1539a137.3 137.3 0 0 1 135.1 112.8l61.1 337.7z" fill="#dad6e1"/><path d="M1917.2 2099.5c-5.6 19.5 5.1 46.9 26.2 52.5s41-14.7 48.4-30.3 9.8-37.7-2-48.4c-17.2-15.7-64-3.7-72.6 26.2z" fill="#385877"/></g></g><g id="shadow" style="mix-blend-mode:multiply"><defs><clipPath id="shadowClipPath"><path d="M1717.4,967.2a241.5,241.5,0,0,1,13.7,36.8l16.7,65.1c7.6,32.4,19.5,65.2,43.6,88.3s53.4,39.9,79.7,60.6c90,71,134.4,191.2,118.8,304.8a216.3,216.3,0,0,0-72.9-76.1,126.4,126.4,0,0,1,25.7,66.1c-17.8-23.2-42.8-40.6-70.5-49.9h0l36,117.2,29.7,96.5,88.4,287.5a248.1,248.1,0,0,1-6.4,155.8l0.8,0.3c47.5,13.8,136.8,46.1,179.8,75.5,26.1,17.8,10.1,55.9-23.2,55.3l-261.5-5.1a246.8,246.8,0,0,1-65.4,28.1h0c2.8,13.3,12.3,21,28.1,21.9,18.2,1,23.7,18.6,24.5,25.5,2.3,21.2-5.8,34.7-27.9,36.9l-91.8,3a53.5,53.5,0,0,1-22.3-4,71.6,71.6,0,0,1-43.1-54.3l-3.5-20.7H1180.9l-5,26.6a71.4,71.4,0,0,1-8.8,23.9c-13.4,22.8-38.9,35.7-65.3,34.1l-84.3-5c-21.4-1.6-31.9-18.9-27.2-40.4,2.5-11.1,15.1-20.3,30.6-21.1,23.3-1.2,30.3-20.2,29.9-43.6l-0.2-3.4q-7-3.7-13.8-7.9L770,2251c-33.3.6-49.7-38.2-23.2-55.3,54-34.9,146.4-69.2,184.5-78.3l0.6-.3a248.9,248.9,0,0,1-12.6-117.5l60-315.5,17.1-89.7,22.2-116.6h0a194.9,194.9,0,0,0-45.8,61.9,195.9,195.9,0,0,1-12.1-91.8c-29,28-43.4,70.4-37.5,110.3-24.9-52.2-30.8-112.6-20.3-169.4s36.8-110.3,72.6-155.7c27.5-34.9,58.2-64.9,83.6-101.2a279.5,279.5,0,0,0,36.4-73.3h0a294.5,294.5,0,0,0,9.2-35.4,240.6,240.6,0,0,1,11.7-40.5l-1.2-.5c-35.7-28.7-68.4-55.4-104.1-84.1-9.7-7.8-20.2-17-21.5-29.4-1.7-17.5,15.7-30.7,32.2-36.6,30.4-10.8,64.3-9.4,95.3-.4a291.9,291.9,0,0,1,85.2,40.3l0.3,0.4a240.6,240.6,0,0,1,71.6-34.3l7.7-2.8c-7.8-12.3-20.7-26.1-41.9-36,0,0,48-47.3,118.7-5,0,0-13.9-74.7-69.4-76.7,0,0,121.4-43.7,189.4,56,0,0,13-40.7-.7-56,0,0,80.2,30.4,67.8,114.8l8.6,2.6a240.7,240.7,0,0,1,72.7,30.3l3.4-3.1a291.9,291.9,0,0,1,81.5-47.3c30.1-11.5,63.8-15.8,95-7.7,17,4.4,35.4,16.2,35.2,33.7-0.2,12.5-9.8,22.5-18.9,31.1-33.1,31.6-71.5,64-104.6,95.6Z" fill="none"/></clipPath><linearGradient id="shadowGradient" x1="1180.91" y1="2153.98" x2="1714.46" y2="2153.98" gradientUnits="userSpaceOnUse"><stop offset="0" stop-color="gray"/><stop offset=".27" stop-color="#7d7d7d"/><stop offset=".46" stop-color="#747474"/><stop offset=".64" stop-color="#646464"/><stop offset=".8" stop-color="#4d4d4d"/><stop offset=".95" stop-color="#303030"/><stop offset="1" stop-color="#242424"/></linearGradient><linearGradient id="shadowGradient2" x1="1698.67" y1="781.55" x2="1698.67" y2="918.52" gradientTransform="matrix(-.98 .19 .19 .98 2599.64 -240.56)" gradientUnits="userSpaceOnUse"><stop offset="0" stop-color="gray"/><stop offset=".14" stop-color="#797979"/><stop offset=".35" stop-color="#646464"/><stop offset=".6" stop-color="#434343"/><stop offset=".89" stop-color="#141414"/><stop offset="1"/></linearGradient><linearGradient id="shadowGradient3" x1="967.21" y1="1454.12" x2="967.21" y2="2254.41" href="#shadowGradient" xlink:href="#shadowGradient"/><linearGradient id="shadowGradient4" x1="1971.82" y1="1970.17" x2="1971.82" y2="2305.13" href="#shadowGradient" xlink:href="#shadowGradient"/><linearGradient id="shadowGradient5" x1="712.25" y1="955.89" x2="712.25" y2="1092.86" gradientTransform="rotate(8.1 1951.22123894 7715.31858407)" href="#shadowGradient2" xlink:href="#shadowGradient2"/><linearGradient id="shadowGradient6" x1="1085.95" y1="963.75" x2="1293.19" y2="963.75" href="#shadowGradient" xlink:href="#shadowGradient"/><linearGradient id="shadowGradient7" x1="969.11" y1="1470.94" x2="1062.29" y2="1470.94" href="#shadowGradient" xlink:href="#shadowGradient"/><linearGradient id="shadowGradient8" x1="912.44" y1="1442.16" x2="989.13" y2="1442.16" href="#shadowGradient" xlink:href="#shadowGradient"/><linearGradient id="shadowGradient9" x1="1296.49" y1="775.18" x2="1404.91" y2="775.18" href="#shadowGradient" xlink:href="#shadowGradient"/><linearGradient id="shadowGradient10" x1="1474.19" y1="771.29" x2="1513.42" y2="771.29" href="#shadowGradient" xlink:href="#shadowGradient"/><linearGradient id="shadowGradient11" x1="1235.56" y1="826.93" x2="1306.12" y2="826.93" href="#shadowGradient" xlink:href="#shadowGradient"/></defs><path fill="none" d="M1.8 0H3001.8V3000H1.8z"/><g clip-path="url(#shadowClipPath)"><path d="M1213.2,2110.7c-22.2,91.8,60.8,117.5,83.2,119.2,41.2,3.1,203.6,5.6,287.7-7.9,43.8-7,109.2-65.4,87.3-196.3l43,256.8H1180.9Z" opacity=".2" fill="url(#shadowGradient)" style="mix-blend-mode:multiply"/><path d="M1050.7,1454.1s0.1,2.1.4,5.9a840.4,840.4,0,0,1-6.6,161.1c-17.7,128.4-31.5,243.2-39.3,305.8a909.6,909.6,0,0,0-6.8,98.4v3.4c23.5,26,47.6,88.8,52.6,176.8l1.3,49s-31.3-.8-81-0.8c-62,0-110.8-111.7-79.2-278.2,28.4-149.5,80.7-435.8,80.7-435.8S995.5,1484.1,1050.7,1454.1Z" opacity=".2" fill="url(#shadowGradient3)" style="mix-blend-mode:multiply"/><path d="M1854.3,2157.4s29.9-91.4,66.3-124.9c-39.4,75,14.1,92.7,28.1,87.7,53.7-19.2,75-66.7,79.2-150l65.3,116.3s-55,256-204,214l-38.7-18.1Z" opacity=".2" fill="url(#shadowGradient4)" style="mix-blend-mode:multiply"/><path d="M1173.5,887s-88.1-44.3-139.7-28.2c-25,7.8-32,21.9-30.2,37.8,10.8,12.7,29.8,13.9,40.1,29.4,25.8,26.5,71.4,56.2,71.4,56.2l23.8-47.8Z" opacity=".4" fill="url(#shadowGradient2)" style="mix-blend-mode:multiply"/><path d="M1651.1,875.6s86-48.2,138.3-34.4c25.3,6.7,32.9,20.4,31.9,36.4-10.2,13.1-29.2,15.3-38.7,31.2-24.6,27.7-68.8,59.4-68.8,59.4l-26-46.6Z" opacity=".4" fill="url(#shadowGradient5)" style="mix-blend-mode:multiply"/><path d="M1293.2,863.8s-138.6,62.4-207.2,228.5c0,0,22.2-217.5,195.8-257.1Z" opacity=".2" fill="url(#shadowGradient6)" style="mix-blend-mode:multiply"/><path d="M969.1,1536.9c4.2-40.3,20.5-67.8,47.6-97.8,7.3-8,45.5-34.1,45.5-34.1s-3.4,39.7-9,47.6c-7.8,11.2-21.1,13.1-32.8,20.2s-17.7,20.8-26.3,31.3" opacity=".2" fill="url(#shadowGradient7)" style="mix-blend-mode:multiply"/><path d="M919.5,1556.8c-7.4-38.7-10.4-78.8-2.2-117.4s39.7-89,71.8-111.9c-24.5,65.1-25.7,91.7-34.5,133.2" opacity=".2" fill="url(#shadowGradient8)" style="mix-blend-mode:multiply"/><path d="M1296.5,714.6c31.1-.1,60.6,17.5,79.5,42.3,16.2,21.3,25.1,47.3,28.9,73.9a4.3,4.3,0,0,1-7.3,3.6c-7-7.3-14.7-14.9-23.1-21.1a97.9,97.9,0,0,1-27-30.4,2.4,2.4,0,0,0-1.9-1.3c-2.1-.1-0.2,2.8.2,1.5" opacity=".2" fill="url(#shadowGradient9)" style="mix-blend-mode:multiply"/><path d="M1474.2,743.5a212.7,212.7,0,0,1,7.4,81.7,3.3,3.3,0,0,0,6.1,2.2c7-10.6,13.8-20.8,19.4-32.2a59.9,59.9,0,0,0-29.2-81.4" opacity=".2" fill="url(#shadowGradient10)" style="mix-blend-mode:multiply"/><path d="M1235.6,789.8c18.1-4,38.2-.6,52.6,11.1s21.8,32.2,16.1,49.8c-2.1,6.6-6.6,13.1-13.3,14.9-7.4-16.8-11-37.8-27.4-46.2" opacity=".2" fill="url(#shadowGradient11)" style="mix-blend-mode:multiply"/></g></g><g id="highlight" style="mix-blend-mode:overlay"><defs><clipPath id="highlightClipPath"><path d="M1717.4,967.2a241.5,241.5,0,0,1,13.7,36.8l16.7,65.1c7.6,32.4,19.5,65.2,43.6,88.3s53.4,39.9,79.7,60.6c90,71,134.4,191.2,118.8,304.8a216.3,216.3,0,0,0-72.9-76.1,126.4,126.4,0,0,1,25.7,66.1c-17.8-23.2-42.8-40.6-70.5-49.9h0l36,117.2,29.7,96.5,88.4,287.5a248.1,248.1,0,0,1-6.4,155.8l0.8,0.3c47.5,13.8,136.8,46.1,179.8,75.5,26.1,17.8,10.1,55.9-23.2,55.3l-261.5-5.1a246.8,246.8,0,0,1-65.4,28.1h0c2.8,13.3,12.3,21,28.1,21.9,18.2,1,23.7,18.6,24.5,25.5,2.3,21.2-5.8,34.7-27.9,36.9l-91.8,3a53.5,53.5,0,0,1-22.3-4,71.6,71.6,0,0,1-43.1-54.3l-3.5-20.7H1180.9l-5,26.6a71.4,71.4,0,0,1-8.8,23.9c-13.4,22.8-38.9,35.7-65.3,34.1l-84.3-5c-21.4-1.6-31.9-18.9-27.2-40.4,2.5-11.1,15.1-20.3,30.6-21.1,23.3-1.2,30.3-20.2,29.9-43.6l-0.2-3.4q-7-3.7-13.8-7.9L770,2251c-33.3.6-49.7-38.2-23.2-55.3,54-34.9,146.4-69.2,184.5-78.3l0.6-.3a248.9,248.9,0,0,1-12.6-117.5l60-315.5,17.1-89.7,22.2-116.6h0a194.9,194.9,0,0,0-45.8,61.9,195.9,195.9,0,0,1-12.1-91.8c-29,28-43.4,70.4-37.5,110.3-24.9-52.2-30.8-112.6-20.3-169.4s36.8-110.3,72.6-155.7c27.5-34.9,58.2-64.9,83.6-101.2a279.5,279.5,0,0,0,36.4-73.3h0a294.5,294.5,0,0,0,9.2-35.4,240.6,240.6,0,0,1,11.7-40.5l-1.2-.5c-35.7-28.7-68.4-55.4-104.1-84.1-9.7-7.8-20.2-17-21.5-29.4-1.7-17.5,15.7-30.7,32.2-36.6,30.4-10.8,64.3-9.4,95.3-.4a291.9,291.9,0,0,1,85.2,40.3l0.3,0.4a240.6,240.6,0,0,1,71.6-34.3l7.7-2.8c-7.8-12.3-20.7-26.1-41.9-36,0,0,48-47.3,118.7-5,0,0-13.9-74.7-69.4-76.7,0,0,121.4-43.7,189.4,56,0,0,13-40.7-.7-56,0,0,80.2,30.4,67.8,114.8l8.6,2.6a240.7,240.7,0,0,1,72.7,30.3l3.4-3.1a291.9,291.9,0,0,1,81.5-47.3c30.1-11.5,63.8-15.8,95-7.7,17,4.4,35.4,16.2,35.2,33.7-0.2,12.5-9.8,22.5-18.9,31.1-33.1,31.6-71.5,64-104.6,95.6Z" fill="none"/></clipPath><linearGradient id="highlightGradient" x1="1982.83" y1="2256.39" x2="1982.83" y2="1456.14" gradientUnits="userSpaceOnUse"><stop offset="0" stop-color="#fff" stop-opacity="0"/><stop offset=".72" stop-color="#fff"/></linearGradient><linearGradient id="highlightGradient2" x1="1676.83" y1="1173.88" x2="1676.83" y2="834.22" href="#highlightGradient" xlink:href="#highlightGradient"/><linearGradient id="highlightGradient3" x1="908.88" y1="1853.92" x2="1039" y2="1853.92" href="#highlightGradient" xlink:href="#highlightGradient"/><linearGradient id="highlightGradient4" x1="2116.32" y1="2248.97" x2="2116.32" y2="2113.28" href="#highlightGradient" xlink:href="#highlightGradient"/><linearGradient id="highlightGradient5" x1="1044.74" y1="2253.08" x2="1044.74" y2="2117.39" gradientTransform="matrix(-1 0 0 1 1878.82 0)" href="#highlightGradient" xlink:href="#highlightGradient"/><linearGradient id="highlightGradient6" x1="1793.84" y1="905.71" x2="1793.84" y2="719.86" gradientTransform="rotate(-43.1 1804.48754992 883.27524864)" href="#highlightGradient" xlink:href="#highlightGradient"/><linearGradient id="highlightGradient7" x1="1388.35" y1="547.46" x2="1388.35" y2="361.61" gradientTransform="matrix(-.7 -.71 -.71 .7 2379.32 1527.44)" href="#highlightGradient" xlink:href="#highlightGradient"/><linearGradient id="highlightGradient8" x1="1791.24" y1="1299.2" x2="2064.4" y2="1299.2" href="#highlightGradient" xlink:href="#highlightGradient"/><linearGradient id="highlightGradient9" x1="1854.92" y1="1450.16" x2="1941.81" y2="1450.16" href="#highlightGradient" xlink:href="#highlightGradient"/></defs><g clip-path="url(#highlightClipPath)" opacity=".3"><path d="M1886.6,1468.5c56.9,249.1,235.5,405.7,252.9,497.1,21.8,114.7-96.5,75.8-117.2,147.7-9.5,32.9-72.5,107.6-72.5,107.6l-61.1,35.5s127.4-81.3,81.2-286c-19.5-86.7-79-277.4-111.6-379.9q-18.6-58.4-31.3-118.3-1.6-7.5-3.5-16" fill="url(#highlightGradient)" style="mix-blend-mode:overlay"/><path d="M1682.7,915.9c-20.7-36.8-78.6-66.4-129.5-81.7l-9,14.9s58.8,19.7,82.5,49.4l4.1,5c7.9,9.3,40.8,52.9,96.8,193.7,12.2,30.8,56.9,51.2,79.7,75.2C1828,1194.5,1701.7,949.7,1682.7,915.9Z" fill="url(#highlightGradient2)"/><path d="M1039,1462.1l-12.2,8.1-25,16.7s-141,524.6-75.7,624c0,0,42.1,98.3,110.7,134.9-66.7-90.9-116.7-144.9-96.7-256.9S1039,1462.1,1039,1462.1Z" fill="url(#highlightGradient3)"/><path d="M1999.2,2162.4s113.2,21.1,98.4,83.6l92.6,3,43.3-6.5-4.3-68.5-206.8-60.7Z" fill="url(#highlightGradient4)"/><path d="M951.2,2166.5s-113.2,21.1-98.4,83.6l-92.6,3-43.3-6.5,4.3-68.5,206.8-60.7Z" opacity=".7" fill="url(#highlightGradient5)"/><path d="M1632.5,868.9s75-44.5,115.2-47c43.6-2.6,70.4-2,85.9,39,11.7,31,36.1-11.5,36.1-11.5l-52.5-90-204,80Z" fill="url(#highlightGradient6)"/><path d="M1187.5,883.7s-61-40.2-101-44.3c-43.4-4.5-70.2-5-87.5,35.3-13,30.4-35.6-13.1-35.6-13.1l56.3-87.7,200.4,88.7Z" fill="url(#highlightGradient7)"/><path d="M1791.2,1167.2c106.3,83.4,177.8,209.7,194.8,343.8,1,8.1,3.2,17.8,10.9,20.2s14.1-3.7,18.9-9.4c19.4-23.4,30-52.9,37.1-82.4,16.5-68.3,16-141.6-8-207.7s-72.5-124.2-136.4-153.5c-19.8-9.1-42.7-15.4-63.2-8" fill="url(#highlightGradient8)" style="mix-blend-mode:overlay"/><path d="M1855.7,1407.2a2.5,2.5,0,0,1,3.2-3.9c5,3.3,9.9,6.6,15,9.6,17.1,10.2,34.6,20.6,47.5,35.8,5,5.9,28.5,42.7,17.5,48.1s-29.3-32.2-34.7-37.6C1888.1,1443.3,1872.8,1423.7,1855.7,1407.2Z" fill="url(#highlightGradient9)" style="mix-blend-mode:overlay"/></g></g><g id="bodyMask"><path d="M1717.4,967.2a241.5,241.5,0,0,1,13.7,36.8l16.7,65.1c7.6,32.4,19.5,65.2,43.6,88.3s53.4,39.9,79.7,60.6c90,71,134.4,191.2,118.8,304.8a216.3,216.3,0,0,0-72.9-76.1,126.4,126.4,0,0,1,25.7,66.1c-17.8-23.2-42.8-40.6-70.5-49.9h0l36,117.2,29.7,96.5,88.4,287.5a248.1,248.1,0,0,1-6.4,155.8l0.8,0.3c47.5,13.8,136.8,46.1,179.8,75.5,26.1,17.8,10.1,55.9-23.2,55.3l-261.5-5.1a246.8,246.8,0,0,1-65.4,28.1h0c2.8,13.3,12.3,21,28.1,21.9,18.2,1,23.7,18.6,24.5,25.5,2.3,21.2-5.8,34.7-27.9,36.9l-91.8,3a53.5,53.5,0,0,1-22.3-4,71.6,71.6,0,0,1-43.1-54.3l-3.5-20.7H1180.9l-5,26.6a71.4,71.4,0,0,1-8.8,23.9c-13.4,22.8-38.9,35.7-65.3,34.1l-84.3-5c-21.4-1.6-31.9-18.9-27.2-40.4,2.5-11.1,15.1-20.3,30.6-21.1,23.3-1.2,30.3-20.2,29.9-43.6l-0.2-3.4q-7-3.7-13.8-7.9L770,2251c-33.3.6-49.7-38.2-23.2-55.3,54-34.9,146.4-69.2,184.5-78.3l0.6-.3a248.9,248.9,0,0,1-12.6-117.5l60-315.5,17.1-89.7,22.2-116.6h0a194.9,194.9,0,0,0-45.8,61.9,195.9,195.9,0,0,1-12.1-91.8c-29,28-43.4,70.4-37.5,110.3-24.9-52.2-30.8-112.6-20.3-169.4s36.8-110.3,72.6-155.7c27.5-34.9,58.2-64.9,83.6-101.2a279.5,279.5,0,0,0,36.4-73.3h0a294.5,294.5,0,0,0,9.2-35.4,240.6,240.6,0,0,1,11.7-40.5l-1.2-.5c-35.7-28.7-68.4-55.4-104.1-84.1-9.7-7.8-20.2-17-21.5-29.4-1.7-17.5,15.7-30.7,32.2-36.6,30.4-10.8,64.3-9.4,95.3-.4a291.9,291.9,0,0,1,85.2,40.3l0.3,0.4a240.6,240.6,0,0,1,71.6-34.3l7.7-2.8c-7.8-12.3-20.7-26.1-41.9-36,0,0,48-47.3,118.7-5,0,0-13.9-74.7-69.4-76.7,0,0,121.4-43.7,189.4,56,0,0,17-35.7,3.3-51,0,0,76.2,25.4,63.8,109.8l8.6,2.6a240.7,240.7,0,0,1,72.7,30.3l3.4-3.1a291.9,291.9,0,0,1,81.5-47.3c30.1-11.5,63.8-15.8,95-7.7,17,4.4,35.4,16.2,35.2,33.7-0.2,12.5-9.8,22.5-18.9,31.1-33.1,31.6-71.5,64-104.6,95.6Z" fill="none"/></g><g id="body"><path d="M1850.5 2273.9c130.6-34.8 214.8-171.9 175.8-309.9l-153.4-498.9M1180.9 2282.4L1714.5 2282.4M1016.8 1486.8l-97.5 512.7c-14.2 107.9 42.3 207 131.5 254.1M1018.5 1477.8L1016.8 1486.8" fill="none" stroke="#31323d" stroke-linecap="round" stroke-miterlimit="10" stroke-width="12.5"/><path d="M1228.6,2040.8c-1.7,15.3-3.8,30.4-6,45.6l-3.5,22.7-3.8,22.6c-2.6,15.1-5.4,30.1-8.1,45.2l-8.3,45.1-16.6,90.3a76.3,76.3,0,0,1-3.5,12.1,77.5,77.5,0,0,1-5.4,11.4,75.5,75.5,0,0,1-16,19.4,78.7,78.7,0,0,1-45.9,18.8l-6.3.2h-6.1l-11.5-.7-22.9-1.3-45.8-2.8h-4.7l-1.8-.3a44.1,44.1,0,0,1-6.7-1.7,35.7,35.7,0,0,1-12.3-7.3,34.7,34.7,0,0,1-8.3-11.7,40.4,40.4,0,0,1-3.1-13.5,50.7,50.7,0,0,1,1-13.2l0.2-.8v-1.7l0.3-1.1a26.9,26.9,0,0,1,1.5-3.6,30.2,30.2,0,0,1,4.1-6.2,37.9,37.9,0,0,1,11-8.8,45.9,45.9,0,0,1,12.7-4.5,49,49,0,0,1,6.6-.9l2.7-.2,2.1-.3a22,22,0,0,0,4.3-1.2,18.5,18.5,0,0,0,3.8-1.9c4.6-3,7.7-8.4,9.4-14.8a70.5,70.5,0,0,0,1.8-20.8l-0.9-22.9-1.9-45.9c-0.6-15.3-1.3-30.6-1.8-45.9v0.5c-0.6-5-1.3-9.9-2-14.9-0.4-2.5-.8-4.9-1.2-7.4s-0.9-4.9-1.4-7.3-1-4.9-1.6-7.3-1.2-4.8-1.8-7.2q-1.9-7.2-4.4-14.2c-0.8-2.3-1.7-4.6-2.6-6.9s-1.8-4.6-2.9-6.8l-1.5-3.4-1.6-3.3-1.7-3.3-1.8-3.3-1.8-3.2-1.9-3.2-4-6.3c-1.4-2.1-2.8-4.1-4.3-6.2l-2.2-3-2.3-3h0a2.2,2.2,0,0,1,3.4-2.9l5.4,5.6q2.6,2.9,5.1,5.9c1.7,2,3.3,4,4.8,6.1l2.3,3.2,2.2,3.2c1.5,2.2,2.9,4.3,4.2,6.6l2,3.4,1.9,3.4q1.9,3.4,3.5,7c1.1,2.4,2.2,4.7,3.2,7.2q3,7.2,5.4,14.7c1.6,5,3,10,4.2,15q0.9,3.8,1.7,7.6c0.5,2.5,1.1,5.1,1.5,7.6,0.9,5.1,1.7,10.2,2.4,15.3v0.5c0.9,15.3,1.6,30.6,2.4,45.8l2.3,45.8,1.1,22.9a94.4,94.4,0,0,1-.1,12.3,71.8,71.8,0,0,1-1.9,12.5,54.5,54.5,0,0,1-2,6.3,42.8,42.8,0,0,1-3.1,6.2,33.3,33.3,0,0,1-9.8,10.4,35.1,35.1,0,0,1-13.2,5.3l-3.5.5-3,.2a35,35,0,0,0-4.7.6,31.9,31.9,0,0,0-8.8,3.2,23.9,23.9,0,0,0-6.9,5.5,16.1,16.1,0,0,0-2.2,3.3,13,13,0,0,0-1.2,3.7,36.6,36.6,0,0,0-.7,9.6,26.2,26.2,0,0,0,2,8.7,20.4,20.4,0,0,0,4.9,6.9,21.4,21.4,0,0,0,7.3,4.3,30.1,30.1,0,0,0,4.4,1.1l1,0.2h3.9l45.8,2.7,22.9,1.4,11.5,0.7h10.5a64.5,64.5,0,0,0,37.6-15.2,61.4,61.4,0,0,0,13.1-15.7,65,65,0,0,0,7.4-19.2l17.4-90.1,8.7-45.1c2.9-15,5.8-30,8.8-45l4.7-22.5,5-22.4c3.4-14.9,7-29.8,11-44.6A2.2,2.2,0,0,1,1228.6,2040.8Z" fill="#31323d"/><path d="M1095.2 2319.6h-.5l-1.7.2a18.6 18.6 0 0 0-5.8 2 22.5 22.5 0 0 0-6.7 5.5 30.2 30.2 0 0 0-2.9 4 38.9 38.9 0 0 0-2.4 4.6l-.5 1.2-.5 1.2-.5 1.2-.4 1.3c-.5 1.7-.9 3.4-1.3 5l-.5 2.4c-.2.8-.3 1.6-.4 2.4s-.4 3-.6 4.4-.2 2.6-.3 3.7-.1 2.1-.2 2.9v2.7a6.3 6.3 0 1 1-12.5-.6 6.9 6.9 0 0 1 .1-.8l.5-2.7c.2-.9.3-1.9.6-3.1s.5-2.6.9-4.1.8-3.1 1.3-4.8l.8-2.6.9-2.7c.7-1.8 1.4-3.7 2.3-5.5l.6-1.4.7-1.4.7-1.4.8-1.4a46.9 46.9 0 0 1 3.6-5.2 37.5 37.5 0 0 1 4.2-4.5 28.8 28.8 0 0 1 9.4-5.8 23.9 23.9 0 0 1 7.7-1.5h3.1A2.2 2.2 0 1 1 1095.2 2319.6zM1052.7 2314.9h-.6l-1.6.4-2.5.9-.7.3-.8.4-1.6.9-1.7 1.1-1.7 1.3-.9.7-.8.8-1.6 1.7-1.5 2-.7 1-.6 1.1-1.3 2.2-1.1 2.4c-.3.8-.7 1.6-1 2.4l-.8 2.5-.8 2.4-.6 2.5a42.3 42.3 0 0 0-1 4.7l-.6 4.3a35.4 35.4 0 0 0-.3 3.7l-.2 2.8-.2 2.5v.4a6.3 6.3 0 1 1-12.5-.8 6.9 6.9 0 0 1 .1-.8l.5-2.7.6-3.1c.3-1.2.4-2.5.9-4l1.3-4.7a51.3 51.3 0 0 1 1.8-5.2l1-2.7 1.3-2.7 1.3-2.7c.5-.9 1.1-1.8 1.6-2.7l1.7-2.6 1.9-2.4.9-1.2 1.1-1.1 2.1-2.1 2.2-1.8 1.1-.9 1.2-.7 2.2-1.4 2.2-1.1 2.1-.8 1-.4 1-.3a26.5 26.5 0 0 1 3.2-.7l2.2-.2h.8A2.2 2.2 0 1 1 1052.7 2314.9zM1673.7 2025.2l2.2 9.4c1.4 6.1 3.4 15.1 5.8 26.6 1.2 5.7 2.5 12.1 3.9 19l4.4 22.5 4.8 25.6 5 28.4 23.3 135.3c1.1 6.1 2 12.8 3.6 17.8a63.3 63.3 0 0 0 7.2 15.7 65.1 65.1 0 0 0 25.9 23.4l4.1 1.9 1.1.4 1 .4 2 .7a45.4 45.4 0 0 0 8.4 1.7l4.3.3h4.6l10-.3 40.1-1.4 39.4-1.2 2.5-.3 1.2-.2.9-.2 1.9-.4 1.9-.6a21.7 21.7 0 0 0 6.5-3.5 17 17 0 0 0 4.3-5.4c.2-.6.6-1.1.7-1.7l.6-1.8a30.4 30.4 0 0 0 .8-3.9 37.8 37.8 0 0 0 .4-4.1c0-.7 0-1.4 0-2.1s0-1.4-.1-2.2l-.2-2.2v-.3a.3.3 0 1 1 0-.1v-1.6l-.2-.8-.2-.9c-.1-.6-.4-1.3-.6-1.9-1.7-5-4.7-9.3-8.4-11.7a17.3 17.3 0 0 0-6.4-2.3l-1.8-.2-2.6-.2h-1.2l-1.5-.2-2.9-.5a39.5 39.5 0 0 1-10.9-4.2 30.1 30.1 0 0 1-9.1-8 34 34 0 0 1-5.3-10.4 47.2 47.2 0 0 1-1.9-10.7c-.1-.9-.1-1.7-.1-2.6s0-1.8 0-2.6v-4.6l.2-9.1.8-35.4.2-8.6v-3.7c0-.8 0-.4 0-.6v-.3l.3-4.2.3-4.2c.1-1.4.2-2.7.4-4.2l1-8.4a250.4 250.4 0 0 1 6.4-31.5 277 277 0 0 1 9.1-28l2.7-6.4c.9-2.1 1.7-4.2 2.7-6.2l2.8-5.9c.9-1.9 1.8-3.9 2.8-5.7l2.9-5.4 1.4-2.6 1.5-2.5 2.9-4.9c.9-1.6 1.8-3.2 2.8-4.7l5.6-8.7 5.4-7.7 2.6-3.5 2.5-3.2c1.6-2.1 3.1-4.1 4.6-5.8l4.1-4.9 3.5-4 6.6-7.1a2.2 2.2 0 0 1 3.4 2.8h0l-5.6 7.8c-3.6 5.1-8.8 12.6-14.9 22.5l-4.7 7.8-4.8 8.8c-.9 1.5-1.7 3.1-2.5 4.7l-2.5 4.9-1.3 2.5-1.2 2.6-2.5 5.4a290.9 290.9 0 0 0-17.7 50.6l-.9 3.6-.4 1.8-.4 1.8-1.5 7.4-.4 1.9-.3 1.9-.6 3.8-.6 3.9-.3 1.9-.2 1.9-.9 7.8c-.2 1.3-.2 2.7-.3 4.1l-.3 4.2-.3 4.2v.3c0-.1 0 .5 0-.1v12.3l-.5 35.4v13.7c0 .8 0 1.4 0 2.1s0 1.4.1 2a33.7 33.7 0 0 0 1.4 7.5 20.3 20.3 0 0 0 3.2 6.2c2.7 3.6 6.9 5.8 12 6.9l1.8.3.9.2h1.2l2.2.2 3 .3a31.3 31.3 0 0 1 11.7 4.2 31.8 31.8 0 0 1 9 8.5 40.3 40.3 0 0 1 5.4 10.5c.3.9.6 1.8.8 2.8l.4 1.4.3 1.6v2.9l.2 2.7c.1.9.1 1.8.1 2.8s.1 1.8 0 2.8a52 52 0 0 1-.5 5.7 44.4 44.4 0 0 1-1.2 5.8l-1 2.9c-.3 1-.8 1.9-1.3 2.9a31.3 31.3 0 0 1-7.9 10.1 35.8 35.8 0 0 1-10.9 6l-2.8.9-3 .7-1.5.3-1.3.2-2.5.3h-5.7l-5 .2-10 .4-20.1.7-40.1 1.3-10 .3h-5.4l-5.6-.4a59.7 59.7 0 0 1-11-2.3l-2.7-.9-1.4-.5-1.2-.5-4.9-2.3a79.2 79.2 0 0 1-31.4-28.6 77.2 77.2 0 0 1-8.7-19.2l-.7-2.6-.3-1.3c-.1-.4-.2-.9-.3-1.3l-.5-2.3-.2-1.2v-1.4l-1.5-9.3-22-135.6-4.5-28.5-3.8-25.7-3.2-22.7c-1-7-1.8-13.4-2.5-19.3-1.5-11.6-2.5-20.8-3.2-27.1l-1-9.6A2.2 2.2 0 0 1 1673.7 2025.2z" fill="#31323d"/><path d="M1783.2 2307.4h3.2a34.8 34.8 0 0 1 8 1.7 33.5 33.5 0 0 1 5.1 2.1 34.2 34.2 0 0 1 5.3 3.3 37.9 37.9 0 0 1 5 4.5c.7.9 1.5 1.7 2.2 2.7l1 1.4 1 1.5a46.8 46.8 0 0 1 3.3 6.1 56.5 56.5 0 0 1 2.4 6.2c.4 1 .6 2 .9 3s.5 2 .7 2.9l.6 2.8.4 2.6c.3 1.7.4 3.2.6 4.6s.3 2.5.3 3.5l.2 3.1a6.3 6.3 0 0 1-12.5.8 6.4 6.4 0 0 1 0-.7v-.3l.2-2.7c.1-.9.1-1.9.1-3.1s.1-2.6 0-4v-2.3l-.2-2.4c-.1-.8-.2-1.7-.3-2.5s-.2-1.8-.4-2.6a47.1 47.1 0 0 0-1.3-5.3 38.1 38.1 0 0 0-2.1-5.2l-.6-1.3-.7-1.2c-.4-.8-1-1.6-1.5-2.3a30.5 30.5 0 0 0-3.5-4.1 29.3 29.3 0 0 0-8-5.5 29.5 29.5 0 0 0-6.6-2.2l-1.9-.3h-.7A2.2 2.2 0 0 1 1783.2 2307.4zM1833.8 2304.2h3.2a34.8 34.8 0 0 1 8 1.7 33.5 33.5 0 0 1 5.1 2.1 34.2 34.2 0 0 1 5.3 3.3 37.9 37.9 0 0 1 5 4.5c.7.9 1.5 1.7 2.2 2.7l1 1.4 1 1.5a46.8 46.8 0 0 1 3.3 6.1 56.6 56.6 0 0 1 2.4 6.2c.4 1 .6 2 .9 3s.5 2 .7 2.9l.6 2.8.4 2.6c.3 1.7.4 3.2.6 4.6s.3 2.5.3 3.5l.2 3.1a6.3 6.3 0 1 1-12.5.1v-.3l.2-2.7c.1-.9.1-1.9.1-3.1s.1-2.6 0-4v-2.3l-.2-2.4c-.1-.8-.2-1.7-.3-2.5s-.2-1.8-.4-2.6a47.1 47.1 0 0 0-1.3-5.3 38 38 0 0 0-2.1-5.2l-.6-1.3-.7-1.2c-.4-.8-1-1.6-1.5-2.3a30.5 30.5 0 0 0-3.5-4.1 29.3 29.3 0 0 0-8-5.5 29.5 29.5 0 0 0-6.6-2.2l-1.9-.3h-.7A2.2 2.2 0 0 1 1833.8 2304.2z" fill="#31323d"/><path d="M931.3,2117.4c-38.1,9.1-130.4,43.4-184.5,78.3-26.5,17.1-10.1,55.9,23.2,55.3l280.4-5.5" fill="none" stroke="#31323d" stroke-linecap="round" stroke-miterlimit="10" stroke-width="12.5"/><path d="M840.5 2200.1l-.7.2-2 .6-3.1 1-4 1.5-4.5 2.1a49.4 49.4 0 0 0-4.7 2.8 36 36 0 0 0-4.4 3.5 26.3 26.3 0 0 0-3.7 4.2l-.8 1.1-.7 1.2a21.4 21.4 0 0 0-1.1 2.4c-.2.4-.3.8-.4 1.2a8.9 8.9 0 0 0-.3 1.2 18.1 18.1 0 0 0-.4 2.4v1.2c0 .4 0 .8 0 1.2v1.2c0 .4.1.8.1 1.2a15.6 15.6 0 0 0 .3 2.2c.2.7.3 1.4.5 2.1a36.6 36.6 0 0 0 1.2 3.6 29.8 29.8 0 0 0 1.2 2.8l1.2 2.4.2.3a6.3 6.3 0 0 1-11.3 5.5l-.3-.7-1.1-3.1c-.4-1-.7-2.2-1.1-3.7a48 48 0 0 1-1-4.9c-.1-.9-.2-1.9-.3-2.9a24.9 24.9 0 0 1-.1-3.2c0-.5 0-1.1 0-1.7l.2-1.7c.1-.6.1-1.2.2-1.7l.4-1.8a27.7 27.7 0 0 1 1-3.5 16.1 16.1 0 0 1 .7-1.7l.8-1.7a30.5 30.5 0 0 1 2-3.2l1.1-1.5 1.2-1.4a34.5 34.5 0 0 1 5.4-4.9 43.4 43.4 0 0 1 5.8-3.6 56.1 56.1 0 0 1 5.7-2.6l5.2-1.8 4.4-1.2 3.5-.7 2.3-.3h.8a2.2 2.2 0 0 1 .8 4.4h-.1zM793 2202.1h-.6l-1.7.5a38.1 38.1 0 0 0-5.9 2.5 32.6 32.6 0 0 0-3.6 2.2 29.2 29.2 0 0 0-3.5 2.9 23.5 23.5 0 0 0-2.9 3.7 18.7 18.7 0 0 0-2 4.2 21.2 21.2 0 0 0-.6 2.2c-.1.8-.3 1.5-.3 2.3a24.7 24.7 0 0 0 .1 4.6 34.5 34.5 0 0 0 .8 4.3c.4 1.4.7 2.7 1.2 3.9l.6 1.7.7 1.5.6 1.3.6 1.1 1.1 2.1v.2a6.3 6.3 0 0 1-11.2 5.6l-.3-.8-.9-2.7-.5-1.4-.5-1.7-.5-1.9c-.2-.7-.3-1.4-.5-2.2s-.6-3.3-.8-5.1a44.7 44.7 0 0 1-.2-5.9 34.2 34.2 0 0 1 .8-6.3c.2-1.1.6-2.1.9-3.2a29.7 29.7 0 0 1 1.3-3.1 26.9 26.9 0 0 1 3.6-5.6 31 31 0 0 1 4.5-4.3 35.8 35.8 0 0 1 4.8-3 38.6 38.6 0 0 1 4.6-2 43.3 43.3 0 0 1 7.1-2l2-.3h.8a2.2 2.2 0 0 1 .8 4.4H793z" fill="#31323d"/><path d="M2020.7,2120.2c47.5,13.8,136.8,46.1,179.8,75.5,26.1,17.8,10.1,55.9-23.2,55.3l-261.6-5.1" fill="none" stroke="#31323d" stroke-linecap="round" stroke-miterlimit="10" stroke-width="12.5"/><path d="M2107.6 2193.7h.8l2.3.4 3.5.8 4.5 1.4 5.2 2a58.4 58.4 0 0 1 5.6 2.8 45.8 45.8 0 0 1 5.7 3.8 36.7 36.7 0 0 1 5.3 5.1l1.2 1.5 1.1 1.6a31 31 0 0 1 1.9 3.3c.3.6.5 1.2.8 1.7s.5 1.2.7 1.8l.6 1.8.3.9.2.9a26.4 26.4 0 0 1 .6 3.5 25.1 25.1 0 0 1 .2 3.4 42.1 42.1 0 0 1-.4 6.2 50.3 50.3 0 0 1-1 5c-.4 1.5-.7 2.8-1.1 3.7l-1.1 3.2a6.3 6.3 0 0 1-11.8-4.1l.3-.7.2-.3 1.2-2.4c.4-.8.7-1.7 1.2-2.8s.8-2.3 1.2-3.7a31.5 31.5 0 0 0 .8-4.4 15.7 15.7 0 0 0 .1-2.4 16.7 16.7 0 0 0-.1-2.5V2224l-.2-1.3c-.1-.4-.2-.8-.4-1.3a12.8 12.8 0 0 0-.4-1.3 21.8 21.8 0 0 0-1.1-2.5l-.7-1.2-.8-1.2a28.5 28.5 0 0 0-3.7-4.4 38.4 38.4 0 0 0-4.4-3.8 51.5 51.5 0 0 0-4.7-3l-4.5-2.3a66.6 66.6 0 0 0-7.1-2.9l-2-.6-.7-.2h-.1A2.2 2.2 0 0 1 2107.6 2193.7zM2155.1 2195.7h.8l2.1.4a44.7 44.7 0 0 1 7.1 2.4 40.4 40.4 0 0 1 4.5 2.3 38.2 38.2 0 0 1 4.7 3.3 33.1 33.1 0 0 1 4.4 4.5 30 30 0 0 1 4.8 8.8c.4 1.1.6 2.2.9 3.2s.4 2.2.6 3.3.3 2.2.2 3.2.1 2.1 0 3.1l-.2 2.9c-.3 1.8-.5 3.6-.8 5.2l-.5 2.3-.6 2-.5 1.8-.5 1.4-.9 2.7a6.3 6.3 0 0 1-11.8-4.1l.3-.7v-.3l1.1-2.2.6-1.2.6-1.4.7-1.6.6-1.7c.5-1.2.8-2.6 1.2-4l.4-2.2c.2-.7.2-1.5.3-2.3s.1-1.5.1-2.3-.1-1.6-.1-2.4-.2-1.6-.3-2.4a20.2 20.2 0 0 0-.6-2.3 20.6 20.6 0 0 0-2-4.4 25.7 25.7 0 0 0-2.9-3.9 31.5 31.5 0 0 0-3.5-3.2 34.4 34.4 0 0 0-3.6-2.4 39.4 39.4 0 0 0-5.9-2.9l-1.7-.6-.6-.2H2154A2.2 2.2 0 0 1 2155.1 2195.7zM1288.7 864.1l-1.9-4.8-1-2.4-1-2.3-2.3-4.6-2.4-4.4-1.3-2.2-1.3-2.1-1.3-2.1-1.4-2.1c-.9-1.4-1.9-2.7-2.9-4s-2.1-2.6-3.2-3.8l-1.6-1.9-1.7-1.8-3.6-3.5-3.7-3.3-3.9-3.1-2-1.5-2.1-1.4-4.2-2.8-2.1-1.3-2.2-1.3-4.4-2.5-.8-.5a6.1 6.1 0 0 1-2.1-8.3 6.3 6.3 0 0 1 1.1-1.4h0l.9-.9.8-.7 1.7-1.4 3.4-2.6q3.5-2.5 7.1-4.7a101.1 101.1 0 0 1 15.3-7.4 98.2 98.2 0 0 1 33.2-6.6 106 106 0 0 1 33.4 4.7q4 1.2 7.9 2.7t7.7 3.2c2.5 1.1 5 2.4 7.5 3.7l3.6 2 3.6 2.1-9.4 6.5-.3-1.5-.4-1.6-.8-3.2q-.9-3.2-1.9-6.4c-1.4-4.2-2.9-8.4-4.7-12.5a106.9 106.9 0 0 0-13.1-22.8 64.2 64.2 0 0 0-18.7-16.9 50.6 50.6 0 0 0-23.6-6.7h0a6.2 6.2 0 0 1-1.8-12.1l3.4-1.1 3.3-1 6.6-1.7q6.7-1.6 13.4-2.8a217.1 217.1 0 0 1 27.2-3 195.4 195.4 0 0 1 27.4.6 170.2 170.2 0 0 1 27.1 4.7q6.7 1.7 13.2 4c4.3 1.5 8.6 3.3 12.8 5.2s8.3 4 12.3 6.4 7.9 4.8 11.6 7.5c1.9 1.3 3.7 2.8 5.5 4.2s3.6 2.9 5.3 4.4c3.5 3 6.8 6.3 10 9.5s6.2 6.8 9.1 10.4 5.6 7.3 8.2 11.1l-10.8.8 1.2-2.8 1.2-2.9c.8-2 1.4-4 2.1-6a83.6 83.6 0 0 0 2.9-12.1 42.4 42.4 0 0 0 .4-11.6 20.8 20.8 0 0 0-1.2-5 13 13 0 0 0-2.3-3.8h0a6.2 6.2 0 0 1 6.6-10.1h.1l1.5.5 1.3.5 2.6 1 5 2.2c3.3 1.6 6.5 3.3 9.6 5.1a113.6 113.6 0 0 1 17.5 12.9q4.1 3.7 7.8 7.8a95.7 95.7 0 0 1 6.9 8.6 94.1 94.1 0 0 1 10.7 19.3 100.9 100.9 0 0 1 3.5 10.5 98.6 98.6 0 0 1 2.3 10.8 104.1 104.1 0 0 1 1.1 10.9c.2 3.6.1 7.3 0 10.9s-.5 7.2-1 10.8c-.3 1.8-.5 3.6-.9 5.3s-.8 3.5-1.2 5.2a81.7 81.7 0 0 1-3.5 10.1c-.7 1.6-1.5 3.2-2.3 4.8s-1.7 3.1-2.7 4.6a2.6 2.6 0 0 1-4.7-1.5h0c0-1.8.2-3.5.4-5.2s.3-3.4.5-5.1l1.1-9.9c.2-1.6.4-3.3.5-4.9s.2-1.6.3-2.4l.2-2.4c.3-3.2.5-6.5.5-9.7s-.1-6.4-.3-9.6a93.1 93.1 0 0 0-1.3-9.5 84.7 84.7 0 0 0-2.2-9.2 86.9 86.9 0 0 0-3.2-8.9 94 94 0 0 0-4.2-8.5 84.6 84.6 0 0 0-5.1-8 93.8 93.8 0 0 0-5.9-7.4q-3.2-3.6-6.7-6.8c-2.3-2.2-4.8-4.2-7.3-6.2s-5.2-3.8-7.9-5.6-5.5-3.4-8.3-5l-4.3-2.2-2.2-1-1.1-.5-.9-.4 6.7-10.1h0a25.5 25.5 0 0 1 4.6 7.6 33.2 33.2 0 0 1 2 8 54.6 54.6 0 0 1-.5 15.1 96 96 0 0 1-3.4 13.9q-1.1 3.4-2.3 6.7l-1.3 3.3-1.5 3.4a6.2 6.2 0 0 1-10.7 1h-.1c-2.4-3.5-4.9-7-7.6-10.3s-5.5-6.5-8.4-9.6-6-6-9.2-8.8c-1.6-1.4-3.2-2.7-4.9-4.1s-3.3-2.6-5.1-3.8a136.2 136.2 0 0 0-45.8-21.2 157.7 157.7 0 0 0-25.2-4.3 182.9 182.9 0 0 0-25.7-.5 204.7 204.7 0 0 0-25.6 2.9q-6.4 1.1-12.6 2.6l-6.2 1.6-3 .9-2.9.9-1.9-12.1a69.4 69.4 0 0 1 7.7.7 61.3 61.3 0 0 1 7.6 1.6 59.6 59.6 0 0 1 7.3 2.6 61.6 61.6 0 0 1 6.9 3.4 70.1 70.1 0 0 1 12.3 9 85.8 85.8 0 0 1 10.1 11.1 119.3 119.3 0 0 1 14.6 25.4q2.9 6.7 5.1 13.6 1.1 3.5 2.1 7l.9 3.5.4 1.8.4 1.9a6.2 6.2 0 0 1-9.2 6.6h-.1l-3.3-1.9-3.3-1.8-6.8-3.4-7-2.9-7.1-2.5a93.5 93.5 0 0 0-29.5-4.2 85.7 85.7 0 0 0-29 5.8 88.7 88.7 0 0 0-13.4 6.5c-2.1 1.3-4.2 2.6-6.2 4.1l-2.9 2.2-1.4 1.1-.6.6-.5.5-1.8-10.1 5.2 2.3c1.7.9 3.4 1.7 5.1 2.6s3.3 1.9 4.9 3l2.4 1.6 2.3 1.7c1.6 1.1 3 2.4 4.5 3.6s2.9 2.5 4.3 3.9 2.7 2.8 4 4.2l1.9 2.2 1.8 2.3c1.2 1.5 2.3 3.1 3.4 4.7s2.1 3.3 3 4.9l1.4 2.5 1.3 2.6c.8 1.7 1.6 3.5 2.2 5.3s1.2 3.6 1.7 5.5a55.7 55.7 0 0 1 1.2 5.6c.1 1 .3 1.9.4 2.8s.2 1.9.2 2.9a36 36 0 0 1-.1 5.9 2.5 2.5 0 0 1-4.9.6v-.2z" fill="#31323d"/><path d="M1202.2 872a291.9 291.9 0 0 0-85.2-40.3c-31-9-64.9-10.4-95.3.4-16.5 5.9-33.9 19.1-32.2 36.6 1.2 12.4 11.7 21.6 21.5 29.4 35.7 28.7 68.4 55.4 104.1 84.1M1630.4 862.1a291.9 291.9 0 0 1 81.5-47.3c30.1-11.5 63.8-15.8 95-7.7 17 4.4 35.4 16.2 35.2 33.7-.2 12.5-9.8 22.5-18.9 31.1-33.1 31.6-71.5 64-104.6 95.6" fill="none" stroke="#31323d" stroke-linecap="round" stroke-linejoin="round" stroke-width="12.5"/><path d="M1054.6 1454.8l-6 4.6-5.8 4.6-5.7 4.7-5.5 4.9-5.4 5-5.2 5.1-5.1 5.2-4.9 5.4-4.7 5.6-4.6 5.7-4.3 5.8-4.2 6-4 6.1-3.8 6.2-3.6 6.3-3.5 6.4-1.3 2.3a5.5 5.5 0 0 1-10.2-2.7h0l-2.1-5.7-1.9-5.7-1.8-5.8-1.6-5.8-1.4-5.9-1.2-5.9-1.1-5.9-.9-6-.7-6-.5-6-.3-6-.2-6v-6l.2-6 .4-6 .6-6 10.6 5.2-5 5.1-4.7 5.4-4.3 5.7-4 6-3.6 6.2-3.3 6.4-2.9 6.6-2.5 6.7-2.1 6.9-1.7 7-1.3 7.1-.9 7.1-.5 7.2v7.2l.4 7.2.8 7.1v.2a6.2 6.2 0 0 1-11.9 3.4 271.4 271.4 0 0 1-18.2-51.9 294.6 294.6 0 0 1-7.4-54.4 309.9 309.9 0 0 1 2.8-54.8c.3-2.3.7-4.5 1.1-6.8l.6-3.4.3-1.7v-.9l.2-.8c.9-4.4 1.7-8.7 2.8-13.3l1.6-6.7 1.8-6.6c1.1-4.4 2.6-8.8 3.9-13.1a359.1 359.1 0 0 1 20.9-50.6 389.7 389.7 0 0 1 28-46.9c1.3-1.9 2.6-3.7 4-5.6l4-5.5c2.8-3.6 5.5-7.3 8.4-10.8l8.6-10.5 8.7-10.3c11.7-13.7 23.7-27 35.2-40.6q8.7-10.2 16.8-20.7c5.4-7 10.7-14.1 15.6-21.4s9.4-14.8 13.4-22.5 7.9-15.7 11.2-23.8 6.3-16.4 9-24.7 4.8-16.9 6.6-25.5l.7-3.2.3-1.7.4-1.6 1.4-6.6c1.1-4.5 2.2-9.1 3.5-13.4a238.3 238.3 0 0 1 9.2-26 259.7 259.7 0 0 1 12-24.8 256.9 256.9 0 0 1 14.8-23.3 235.7 235.7 0 0 1 17.3-21.5A248 248 0 0 1 1272.4 832a6.2 6.2 0 0 1 3.5 12h-.1a234.8 234.8 0 0 0-109.5 68.8 223.3 223.3 0 0 0-16.4 20.4 244.5 244.5 0 0 0-14 22.1 247.1 247.1 0 0 0-11.4 23.6 225.8 225.8 0 0 0-8.7 24.7c-1.3 4.2-2.3 8.4-3.3 12.6l-1.4 6.6-.4 1.6-.3 1.6-.7 3.4c-1.9 8.9-4.2 17.8-6.9 26.6s-5.8 17.4-9.4 25.8-7.4 16.8-11.7 24.9-9 15.9-14.1 23.7-10.5 14.9-16.1 22.1-11.3 14.2-17.1 21.1c-11.7 13.8-23.7 27.1-35.3 40.7l-8.6 10.2-8.4 10.3c-2.8 3.4-5.4 7-8.1 10.5l-3.9 5.4c-1.3 1.8-2.6 3.6-3.8 5.4a377.3 377.3 0 0 0-27.1 45.4 346.6 346.6 0 0 0-20.1 48.8c-1.3 4.2-2.7 8.4-3.8 12.6l-1.7 6.4-1.5 6.3c-1.1 4.2-1.9 8.7-2.8 13l-.2.8v.4h0v.2l-.3 1.6L908 1395c-.3 2.2-.8 4.3-1 6.5a297.4 297.4 0 0 0-2.7 52.5 282.2 282.2 0 0 0 7.1 52 259 259 0 0 0 17.3 49.5l-11.8 3.6-.9-7.9-.4-7.9v-7.9l.5-7.9 1-7.9 1.5-7.8 1.9-7.7 2.3-7.6 2.8-7.4 3.2-7.2 3.6-7.1 4-6.8 4.4-6.6 4.8-6.3 5.2-6 5.5-5.7a6.2 6.2 0 0 1 10.6 4.9v.3l-.5 5.6-.4 5.6-.2 5.6v5.7l.2 5.7.3 5.6.5 5.6.7 5.6.8 5.6 1 5.6 1.2 5.5 1.3 5.5 1.5 5.5 1.6 5.4 1.8 5.4 2 5.3L967 1537l3.2-7.1 3.6-6.9 3.9-6.8 4.2-6.6 4.5-6.4 4.8-6.1 5-5.9 5.3-5.7 5.5-5.5 5.8-5.2 6-4.9 6.2-4.6 6.5-4.3 6.7-3.9 6.9-3.6 7-3A2.5 2.5 0 0 1 1054.6 1454.8zM1555.8 828.9l6.6 1.7 3.3.9 3.4 1 6.7 2.1 3.3 1.1 3.3 1.2a236.4 236.4 0 0 1 25.6 10.8 246.5 246.5 0 0 1 46.7 29.8 242.7 242.7 0 0 1 38.9 39.4 245.1 245.1 0 0 1 39.6 72.8c.7 2.2 1.5 4.4 2.2 6.6l1 3.3.5 1.7.3.8v1l3.4 13.1 13.4 52.5c.5 2.2 1 4.4 1.6 6.5s1.1 4.2 1.7 6.4 1.2 4.3 1.8 6.4 1.3 4.2 2 6.3a193.5 193.5 0 0 0 9.8 24.3 132.6 132.6 0 0 0 13.5 22 113.4 113.4 0 0 0 8.3 9.7l2.2 2.3.6.6h.2l.3.3 1.2 1.2 2.5 2.3 2.4 2.2c6.5 5.8 13.5 11.3 20.6 16.6s14.5 10.4 21.9 15.6 14.8 10.4 22.1 15.9l5.5 4.2 2.8 2.2 2.6 2.1 5.2 4.3 5.2 4.6a308.5 308.5 0 0 1 37.8 40.2 327.3 327.3 0 0 1 30.4 46c1.1 2 2.2 4 3.2 6.1l3.2 6.1 3 6.2 1.5 3.1 1.4 3.2 2.8 6.3 2.6 6.4c1.8 4.2 3.3 8.6 4.9 12.9a351 351 0 0 1 20 107.9 351.4 351.4 0 0 1-3 55 6.2 6.2 0 0 1-11.5 2.4h-.1l-3.3-5.6-3.4-5.5-3.6-5.4-3.8-5.2-3.9-5.1-4.1-5-4.3-4.9-4.4-4.7-4.5-4.6-4.7-4.5-4.8-4.3-4.9-4.2-5.1-4-5.2-3.8-5.3-3.7-5.4-3.5 8.3-9.1 2.8 3.8 2.7 3.9 2.5 4 2.4 4.1 2.2 4.1 2.1 4.2 1.9 4.3 1.8 4.4 1.6 4.4 1.5 4.5 1.3 4.5 1.2 4.6 1 4.6.8 4.6.7 4.7.5 4.7h0a6.2 6.2 0 0 1-10.8 4.8l-.4-.5-5.4-6.2-5.7-5.9-6-5.6-6.3-5.3-6.5-5-6.8-4.6-7-4.3-7.2-3.9-7.5-3.5-7.6-3.2-7.8-2.8-7.9-2.4-8.1-2.1-8.2-1.7-8.3-1.3-8.4-1h-.2a2.5 2.5 0 0 1 .1-5l8.8-.9h8.9l8.9.5 8.8 1.2 8.8 1.8 8.6 2.4 8.5 3 8.3 3.5 8.1 4 7.8 4.5 7.5 4.9 7.2 5.4 6.8 5.9 6.4 6.3 6 6.7 5.5 7.2-11.2 4.3h0l-.4-4.2-.6-4.2-.7-4.2-.9-4.2-1-4.1-1.2-4.1-1.3-4.1-1.5-4-1.6-4-1.8-3.9-1.9-3.8-2-3.8-2.2-3.7-2.3-3.6-2.4-3.5-2.5-3.4v-.2a6.2 6.2 0 0 1 8.4-8.9l5.7 3.7 5.6 3.9 5.5 4.1 5.4 4.2 5.2 4.4 5.1 4.6 5 4.7 4.8 4.9 4.7 5 4.5 5.2 4.3 5.3 4.2 5.4 4 5.6 3.8 5.7 3.7 5.8 3.5 5.9-11.6 2.2a338.9 338.9 0 0 0 2.9-53 338.5 338.5 0 0 0-19.3-104c-1.5-4.2-3-8.3-4.7-12.4l-2.5-6.2-2.7-6.1-1.3-3-1.4-3-2.9-6-3-5.9c-1-2-2-3.9-3.1-5.9a314.8 314.8 0 0 0-29.2-44.2l-4.1-5.2-4.3-5c-2.8-3.4-5.9-6.6-8.9-9.9-1.5-1.6-3.1-3.2-4.6-4.8s-3.1-3.2-4.7-4.7c-3.2-3-6.4-6.2-9.7-9l-4.9-4.3-5.2-4.3-2.6-2.1-2.5-2-5.3-4c-7.1-5.3-14.4-10.5-21.8-15.7-14.8-10.4-29.7-20.8-43.7-33.1l-2.6-2.3-2.5-2.3-1.2-1.2-.7-.6-.6-.6-2.5-2.5a125.9 125.9 0 0 1-9.3-10.8 145.1 145.1 0 0 1-14.7-24.1c-8.3-16.8-13.7-34.6-17.9-52.4l-13.4-52.3-3.4-13.1-1.8-6.2c-.6-2.1-1.4-4.2-2.1-6.3a232.6 232.6 0 0 0-37.6-69.1 230.2 230.2 0 0 0-37-37.4 234 234 0 0 0-44.4-28.3 223.9 223.9 0 0 0-24.3-10.2l-3.1-1.1-3.1-1-6.3-1.9-3.1-.9-3.2-.9-6.6-1.7A6.2 6.2 0 0 1 1555.8 828.9z" fill="#31323d"/></g><g id="wild"><defs><clipPath id="wildClipPath"><path d="M1251.6 912.6a41.9 41.9 0 0 0-12.3-30.4 41.5 41.5 0 0 0-14.3-9.3c-4.3-1.6-8.8-2.6-13.3-4a378.3 378.3 0 0 1-46-18.3 444 444 0 0 1-43.5-23.4l-7.6-4.8-.2-4.6c-1.2-14.8-5.5-29.4-10.3-43.4-3.9-11.3-8.4-22.4-13.3-33.4-1.4-3-5.6-1.9-5.8 1.2s-.1 4.4-.2 6.5c-.3 8-1.6 24.1-1.6 24.1l-.9 6a10.4 10.4 0 0 1-17 6.5l-.7-.6q-9.8-8.6-19.2-17.9a360.4 360.4 0 0 1-32.2-36.6 402.8 402.8 0 0 1-27-40.3c-2.7-7.3-3.8-15.1-4.3-22.8-1.1-19.9 2.3-40 7.6-59.1a240.3 240.3 0 0 1 22-54.4 178 178 0 0 1 22.1-30.9c13.2-14.9 28.4-28 43.6-40.8s30.7-25 44.1-39.6c6.5-7.1 12.5-14.8 16.8-23.4a59.4 59.4 0 0 0 5-13.7 52 52 0 0 0 1.1-7.6q.1-1.9.1-3.9a6.5 6.5 0 0 0-.3-2.8 3 3 0 0 0-4.3-1.2c-1.6 1-1.7 3.5-2.1 5.2a48.9 48.9 0 0 1-5.4 12.1c-4.9 7.9-11.7 14.3-18.9 20.1a248.8 248.8 0 0 1-24.1 16.7l-25.6 15.7c-16.8 10.4-33.3 21.4-48.4 34.3a227 227 0 0 0-17.2 16.3c-42.1 22.9-67.1-60.8-68.2-64.6a360.6 360.6 0 0 1-7.1-38.7 480.3 480.3 0 0 1-4-59c0-4 0-8 .1-12 0-1.2.3-2.8-.3-3.9a3 3 0 0 0-4.7-.6c-1 1-1.1 3-1.4 4.4s-.7 3.9-1.1 5.9q-1.1 6-2 12a484.8 484.8 0 0 0-5.3 60.8c-.5 21.8.6 43.7 4.4 65.2s9.8 40.4 20.3 58.3q2.7 4.7 5.9 9.1c6.6 11.9 15.4 34.2 7.7 59.1l-2.9 9.3-.2.7-1.2 3.9q-1.2 4.5-2.3 9a15.1 15.1 0 0 1-21.9 7.3l-6.8-4.1a362.9 362.9 0 0 1-47-36.3c-5.4-5-10.6-10-15.7-15.3l-8-8.6a32.9 32.9 0 0 1-3.6-4v.2l-3.5-4.1a369.8 369.8 0 0 1-31.9-43.5 453.1 453.1 0 0 1-29.8-56.6c-4.2-9.5-8.1-19.1-12.3-28.6q-2.8-6.4-5.8-12.8l-2.5-5.2c-.7-1.4-1.3-3.5-2.6-4.4a3 3 0 0 0-4.6 1.4c-.5 1.6.1 3.8.2 5.4.4 4.2.9 8.4 1.4 12.6 1.2 10 2.5 20 4.2 29.9a289.4 289.4 0 0 0 16.8 61 323.6 323.6 0 0 0 29.8 57.4c5.3 8 10.8 15.8 16.7 23.3a344.6 344.6 0 0 0 37.3 40.6 332.4 332.4 0 0 0 50.9 38.6l5.1 3h.2l4.4 2.5a97.7 97.7 0 0 1 33.5 34.1l3.9 7.8 1.8 3.5v.2a446.8 446.8 0 0 0 28.5 46.9 413.9 413.9 0 0 0 37.4 46.3 479.7 479.7 0 0 0 91 76.3 497.1 497.1 0 0 0 51.5 29.2 325.8 325.8 0 0 0 42.6 17.8 42.7 42.7 0 0 0 8.6 1.8 41.6 41.6 0 0 0 46.1-40z" fill="#cc8e64" stroke="#31323d" stroke-linecap="round" stroke-miterlimit="10" stroke-width="10"/></clipPath><clipPath id="wildClipPath2"><path d="M1591.4 919.1a41.9 41.9 0 0 1 10.7-31.1 41.5 41.5 0 0 1 13.8-10c4.2-1.9 8.7-3 13-4.7a378.3 378.3 0 0 0 45-20.7 444 444 0 0 0 42.2-25.6l7.3-5.2q-.1-2.3 0-4.6c.4-14.9 3.9-29.6 8-43.8 3.3-11.5 7.2-22.8 11.5-34 1.2-3.1 5.5-2.2 5.9.9s.3 4.3.5 6.5c.7 8 2.8 23.9 2.8 23.9l1.2 6a10.4 10.4 0 0 0 17.4 5.6l.7-.6q9.4-9.1 18.2-18.9a360.4 360.4 0 0 0 30.3-38.2 402.8 402.8 0 0 0 24.9-41.6c2.3-7.4 3-15.3 3.1-23 .1-19.9-4.4-39.8-10.6-58.7a240.3 240.3 0 0 0-24.8-53.2 178 178 0 0 0-23.7-29.7c-14-14.2-29.8-26.5-45.7-38.5s-32-23.4-46.1-37.2c-6.9-6.7-13.2-14.1-18-22.5a59.4 59.4 0 0 1-5.7-13.5 52 52 0 0 1-1.5-7.5q-.2-1.9-.3-3.9a6.5 6.5 0 0 1 .2-2.8 3 3 0 0 1 4.2-1.4c1.7 1 1.8 3.5 2.4 5.1a48.9 48.9 0 0 0 6 11.8c5.3 7.6 12.5 13.7 19.9 19.1a248.8 248.8 0 0 0 25 15.4l26.4 14.4c17.3 9.5 34.4 19.6 50.1 31.7a227 227 0 0 1 18.1 15.4c43.2 20.7 63.8-64.2 64.7-68.1a360.6 360.6 0 0 0 5.1-39 480.3 480.3 0 0 0 .9-59.1c-.2-4-.4-8-.7-12-.1-1.2-.5-2.8.1-3.9a3 3 0 0 1 4.7-.9c1.1 1 1.3 3 1.6 4.3l1.4 5.8q1.4 5.9 2.6 11.9a484.8 484.8 0 0 1 8.5 60.4c1.6 21.7 1.7 43.7-1 65.3s-7.7 40.8-17.2 59.2q-2.5 4.8-5.4 9.4c-6 12.2-13.6 34.9-4.6 59.5l3.4 9.1.2.7 1.4 3.9q1.5 4.4 2.8 8.9a15.1 15.1 0 0 0 22.2 6.2l6.6-4.5a362.9 362.9 0 0 0 44.8-38.9c5.1-5.2 10.1-10.6 14.8-16.1q3.9-4.4 7.6-9a32.9 32.9 0 0 0 3.4-4.2v.2l3.3-4.3a369.8 369.8 0 0 0 29.5-45.1 453.1 453.1 0 0 0 27-58c3.7-9.7 7.1-19.5 10.8-29.2q2.5-6.5 5.1-13l2.2-5.3c.6-1.4 1.1-3.6 2.3-4.6a3 3 0 0 1 4.7 1.2c.6 1.5.1 3.8 0 5.4-.2 4.2-.5 8.4-.8 12.7-.7 10-1.5 20.1-2.6 30.1a289.4 289.4 0 0 1-13.5 61.8 323.6 323.6 0 0 1-26.7 58.9c-4.8 8.2-9.9 16.4-15.4 24.2a344.6 344.6 0 0 1-35.2 42.5 332.4 332.4 0 0 1-48.8 41.2l-4.9 3.3-.2.2-4.2 2.8a97.7 97.7 0 0 0-31.6 35.8c-1.1 2.7-2.3 5.4-3.4 8l-1.7 3.6v.2a446.8 446.8 0 0 1-26 48.3 413.9 413.9 0 0 1-34.9 48.2 479.7 479.7 0 0 1-86.9 81 497.1 497.1 0 0 1-49.9 31.9 325.8 325.8 0 0 1-41.6 20 42.7 42.7 0 0 1-8.5 2.3 41.6 41.6 0 0 1-48.4-38.1z" fill="#cc8e64" stroke="#31323d" stroke-linecap="round" stroke-miterlimit="10" stroke-width="10"/></clipPath><linearGradient id="wildLinearGradient" x1="714.82" y1="566.95" x2="944.35" y2="566.95" gradientUnits="userSpaceOnUse"><stop offset="0" stop-color="gray"/><stop offset=".27" stop-color="#7d7d7d"/><stop offset=".46" stop-color="#747474"/><stop offset=".64" stop-color="#646464"/><stop offset=".8" stop-color="#4d4d4d"/><stop offset=".95" stop-color="#303030"/><stop offset="1" stop-color="#242424"/></linearGradient><linearGradient id="wildLinearGradient2" x1="1114.9" y1="916.58" x2="1114.9" y2="668.1" gradientUnits="userSpaceOnUse"><stop offset="0" stop-color="#fff" stop-opacity="0"/><stop offset=".72" stop-color="#fff"/></linearGradient><linearGradient id="wildLinearGradient3" x1="913.61" y1="840.76" x2="1255.94" y2="840.76" href="#wildLinearGradient" xlink:href="#wildLinearGradient"/><linearGradient id="wildLinearGradient4" x1="889.62" y1="458.24" x2="952" y2="458.24" href="#wildLinearGradient" xlink:href="#wildLinearGradient"/><linearGradient id="wildLinearGradient5" x1="827.85" y1="622.79" x2="934.32" y2="622.79" href="#wildLinearGradient" xlink:href="#wildLinearGradient"/><linearGradient id="wildLinearGradient6" x1="839.39" y1="682.5" x2="839.39" y2="417.65" href="#wildLinearGradient2" xlink:href="#wildLinearGradient2"/><linearGradient id="wildLinearGradient7" x1="971.19" y1="542.58" x2="1171.33" y2="542.58" href="#wildLinearGradient2" xlink:href="#wildLinearGradient2"/><linearGradient id="wildLinearGradient8" x1="941.63" y1="509.11" x2="1018.61" y2="509.11" href="#wildLinearGradient2" xlink:href="#wildLinearGradient2"/><linearGradient id="wildLinearGradient9" x1="960.01" y1="621.65" x2="1031.76" y2="621.65" href="#wildLinearGradient2" xlink:href="#wildLinearGradient2"/><linearGradient id="wildLinearGradient10" x1="1068.77" y1="777.89" x2="1094.06" y2="777.89" href="#wildLinearGradient" xlink:href="#wildLinearGradient"/><linearGradient id="wildLinearGradient11" x1="993.18" y1="461.12" x2="1136.53" y2="461.12" href="#wildLinearGradient" xlink:href="#wildLinearGradient"/><linearGradient id="wildLinearGradient12" x1="1711.33" y1="560.58" x2="1940.86" y2="560.58" gradientTransform="matrix(-1 .05 .05 1 3789 -103.51)" href="#wildLinearGradient" xlink:href="#wildLinearGradient"/><linearGradient id="wildLinearGradient13" x1="1910.12" y1="834.39" x2="2252.44" y2="834.39" gradientTransform="matrix(-1 .05 .05 1 3789 -103.51)" href="#wildLinearGradient" xlink:href="#wildLinearGradient"/><linearGradient id="wildLinearGradient14" x1="1886.13" y1="451.87" x2="1948.5" y2="451.87" gradientTransform="matrix(-1 .05 .05 1 3789 -103.51)" href="#wildLinearGradient" xlink:href="#wildLinearGradient"/><linearGradient id="wildLinearGradient15" x1="1824.36" y1="616.42" x2="1930.82" y2="616.42" gradientTransform="matrix(-1 .05 .05 1 3789 -103.51)" href="#wildLinearGradient" xlink:href="#wildLinearGradient"/><linearGradient id="wildLinearGradient16" x1="2111.41" y1="910.21" x2="2111.41" y2="661.73" gradientTransform="matrix(-1 .05 .05 1 3789 -103.51)" href="#wildLinearGradient2" xlink:href="#wildLinearGradient2"/><linearGradient id="wildLinearGradient17" x1="1835.9" y1="676.13" x2="1835.9" y2="411.28" gradientTransform="matrix(-1 .05 .05 1 3789 -103.51)" href="#wildLinearGradient2" xlink:href="#wildLinearGradient2"/><linearGradient id="wildLinearGradient18" x1="1967.69" y1="536.21" x2="2167.84" y2="536.21" gradientTransform="matrix(-1 .05 .05 1 3789 -103.51)" href="#wildLinearGradient2" xlink:href="#wildLinearGradient2"/><linearGradient id="wildLinearGradient19" x1="1938.14" y1="502.74" x2="2015.11" y2="502.74" gradientTransform="matrix(-1 .05 .05 1 3789 -103.51)" href="#wildLinearGradient2" xlink:href="#wildLinearGradient2"/><linearGradient id="wildLinearGradient20" x1="1956.52" y1="615.28" x2="2028.27" y2="615.28" gradientTransform="matrix(-1 .05 .05 1 3789 -103.51)" href="#wildLinearGradient2" xlink:href="#wildLinearGradient2"/><linearGradient id="wildLinearGradient21" x1="2065.27" y1="771.52" x2="2090.56" y2="771.52" gradientTransform="matrix(-1 .05 .05 1 3789 -103.51)" href="#wildLinearGradient" xlink:href="#wildLinearGradient"/><linearGradient id="wildLinearGradient22" x1="1989.69" y1="454.75" x2="2133.04" y2="454.75" gradientTransform="matrix(-1 .05 .05 1 3789 -103.51)" href="#wildLinearGradient" xlink:href="#wildLinearGradient"/></defs><g style="isolation:isolate"><path d="M1221.7 886.7s4.5-27.7 34.4-16.7c0 0 27.7 13.8 25.8 56.8s-42.3 57.4-71.8 50.9-27.6-34.1-27.6-34.1z" fill="#fcda86"/><path d="M1277 890.8l.2.3.6.7a32.7 32.7 0 0 1 1.9 2.9 42.1 42.1 0 0 1 2.5 4.7 47.5 47.5 0 0 1 2.4 6.4c.4 1.2.7 2.5 1 3.8s.5 2.7.7 4.1a57.5 57.5 0 0 1 .6 9.1 64.3 64.3 0 0 1-.8 9.7 69.1 69.1 0 0 1-2.3 9.7c-.4 1.4-1.1 3.1-1.7 4.7l-1 2.3-1.1 2.3a56.5 56.5 0 0 1-5.1 8.4 51.5 51.5 0 0 1-6.1 6.9 46.7 46.7 0 0 1-6.4 5.1 43.9 43.9 0 0 1-6 3.4 39.4 39.4 0 0 1-5 1.9l-3.4.9-1.3.2a2.5 2.5 0 0 1-1.1-4.9c-.1 0 1.2-.5 3.5-1.7l3.9-2.4a50.6 50.6 0 0 0 9.6-8.5 52.1 52.1 0 0 0 4.6-6.2 57.9 57.9 0 0 0 4-7.2l.9-1.9.8-2c.5-1.3.9-2.5 1.4-4.1a79.6 79.6 0 0 0 2.1-8.4 71.1 71.1 0 0 0 1.1-8.3 70.1 70.1 0 0 0 .1-7.8c-.1-1.2-.2-2.5-.3-3.6s-.3-2.3-.4-3.4-.8-4.1-1.2-5.9-.9-3.2-1.3-4.4l-1.1-2.8-.3-.7v-.2a2.5 2.5 0 0 1 4-3.1z" fill="#31323d"/><path d="M1251.6 912.6a41.9 41.9 0 0 0-12.3-30.4 41.5 41.5 0 0 0-14.3-9.3c-4.3-1.6-8.8-2.6-13.3-4a378.3 378.3 0 0 1-46-18.3 444 444 0 0 1-43.5-23.4l-7.6-4.8-.2-4.6c-1.2-14.8-5.5-29.4-10.3-43.4-3.9-11.3-8.4-22.4-13.3-33.4-1.4-3-5.6-1.9-5.8 1.2s-.1 4.4-.2 6.5c-.3 8-1.6 24.1-1.6 24.1l-.9 6a10.4 10.4 0 0 1-17 6.5l-.7-.6q-9.8-8.6-19.2-17.9a360.4 360.4 0 0 1-32.2-36.6 402.8 402.8 0 0 1-27-40.3c-2.7-7.3-3.8-15.1-4.3-22.8-1.1-19.9 2.3-40 7.6-59.1a240.3 240.3 0 0 1 22-54.4 178 178 0 0 1 22.1-30.9c13.2-14.9 28.4-28 43.6-40.8s30.7-25 44.1-39.6c6.5-7.1 12.5-14.8 16.8-23.4a59.4 59.4 0 0 0 5-13.7 52 52 0 0 0 1.1-7.6q.1-1.9.1-3.9a6.5 6.5 0 0 0-.3-2.8 3 3 0 0 0-4.3-1.2c-1.6 1-1.7 3.5-2.1 5.2a48.9 48.9 0 0 1-5.4 12.1c-4.9 7.9-11.7 14.3-18.9 20.1a248.8 248.8 0 0 1-24.1 16.7l-25.6 15.7c-16.8 10.4-33.3 21.4-48.4 34.3a227 227 0 0 0-17.2 16.3c-42.1 22.9-67.1-60.8-68.2-64.6a360.6 360.6 0 0 1-7.1-38.7 480.3 480.3 0 0 1-4-59c0-4 0-8 .1-12 0-1.2.3-2.8-.3-3.9a3 3 0 0 0-4.7-.6c-1 1-1.1 3-1.4 4.4s-.7 3.9-1.1 5.9q-1.1 6-2 12a484.8 484.8 0 0 0-5.3 60.8c-.5 21.8.6 43.7 4.4 65.2s9.8 40.4 20.3 58.3q2.7 4.7 5.9 9.1c6.6 11.9 15.4 34.2 7.7 59.1l-2.9 9.3-.2.7-1.2 3.9q-1.2 4.5-2.3 9a15.1 15.1 0 0 1-21.9 7.3l-6.8-4.1a362.9 362.9 0 0 1-47-36.3c-5.4-5-10.6-10-15.7-15.3l-8-8.6a32.9 32.9 0 0 1-3.6-4v.2l-3.5-4.1a369.8 369.8 0 0 1-31.9-43.5 453.1 453.1 0 0 1-29.8-56.6c-4.2-9.5-8.1-19.1-12.3-28.6q-2.8-6.4-5.8-12.8l-2.5-5.2c-.7-1.4-1.3-3.5-2.6-4.4a3 3 0 0 0-4.6 1.4c-.5 1.6.1 3.8.2 5.4.4 4.2.9 8.4 1.4 12.6 1.2 10 2.5 20 4.2 29.9a289.4 289.4 0 0 0 16.8 61 323.6 323.6 0 0 0 29.8 57.4c5.3 8 10.8 15.8 16.7 23.3a344.6 344.6 0 0 0 37.3 40.6 332.4 332.4 0 0 0 50.9 38.6l5.1 3h.2l4.4 2.5a97.7 97.7 0 0 1 33.5 34.1l3.9 7.8 1.8 3.5v.2a446.8 446.8 0 0 0 28.5 46.9 413.9 413.9 0 0 0 37.4 46.3 479.7 479.7 0 0 0 91 76.3 497.1 497.1 0 0 0 51.5 29.2 325.8 325.8 0 0 0 42.6 17.8 42.7 42.7 0 0 0 8.6 1.8 41.6 41.6 0 0 0 46.1-40z" fill="#cc8e64"/><g clip-path="url(#wildClipPath)"><path d="M935.5 629.2s-6.5 55.6 8.1 95.6-182.1-90.7-182.1-90.7l-46.7-221.3 41.3-11.3z" opacity=".2" fill="url(#wildLinearGradient)" style="mix-blend-mode:multiply"/><path d="M1249.8 909.2c1.9-2.1-5.5-10.6-3.6-12.7 0 30-14.1 37.4-32.6 37.4s-42.4-14.9-58.9-23.1c-42.8-21.3-78.1-50.7-114.2-84.3s-63-65.3-99.8-108.9c-5.7-6.8-11.5-12.6-19.4-8.6s-8.1 12.9-7.7 20.7c2.4 51 29.2 98.5 65.4 134.5s81.2 61.6 127 84.2c24.8 12.3 50.9 23.9 78.5 25.3s57.6-9.8 71.3-33.9" opacity=".4" fill="url(#wildLinearGradient3)" style="mix-blend-mode:multiply"/><path d="M951.5 560.1c-2.6-16.5-11.1-33.2-17-48.8-21-55.6-27.8-132.6-13.1-190.2-15.8 4.4-22.7 22.6-26 38.7a294.2 294.2 0 0 0-2.1 104.3c5.1 32.6 18.2 97.6 38.7 124.3 16.7 21.9 21.8-14 19.5-28.3z" opacity=".4" fill="url(#wildLinearGradient4)" style="mix-blend-mode:multiply"/><path d="M827.8 562.7A756.1 756.1 0 0 0 934 682.9c.7-17.5 1.2-35.9-6.5-51.6-10.1-20.7-32-32.6-52.6-43" opacity=".4" fill="url(#wildLinearGradient5)" style="mix-blend-mode:multiply"/><path d="M1012.5 752.5c23.8 36.7 38.3 56.4 68.2 86s124.9 94.6 159.5 74.3c25.1-14.7-28.5-43.9-28.5-43.9-5.8-8.5-81.9-135.9-118.8-145.4-26.4-6.8-114.6-83.1-109.7-44.6 2.9 23.2 11.8 46.7 29.3 73.6z" opacity=".2" fill="url(#wildLinearGradient2)" style="mix-blend-mode:overlay"/><path d="M743.5 417.6c13 67.5 46.2 127.9 87.6 182.8 9.9 13.2 87.7 82.5 104.1 82-46.9-59.8-108.8-140.6-128.6-185.1-10.7-24-21.8-48.7-40.9-66.7a36 36 0 0 0-5.6 23.8" opacity=".2" fill="url(#wildLinearGradient6)" style="mix-blend-mode:overlay"/><path d="M989.6 680c-17.3-17.9-20.7-45.4-17.2-70 6.4-45.3 32.9-86.1 66.6-117.1s67.2-50.1 104-87.5c1.9-2 16.7 11.8 19.4 12 5 .4 8.5 5.4 8.9 10.4s-1.6 9.8-3.6 14.3a529.1 529.1 0 0 1-168.8 210.4" opacity=".2" fill="url(#wildLinearGradient7)" style="mix-blend-mode:overlay"/><path d="M977.8 536.4c7 1.5 23.4 1.2 29.7-3.2 3.8-2.7 14.6-18.7 10-20.5-10.4-4.1-16.6.8-27.7.5-7.8-.2-14.3-5.2-21.9-3.6-3.4.7-24.5-30.8-26.1-28.4s7 32.6 9 35.7c6.7 10.2 17.9 17.6 27 19.5z" opacity=".2" fill="url(#wildLinearGradient8)" style="mix-blend-mode:overlay"/><path d="M986.6 695.2c-13.8-20.4-24.3-43.7-26.3-68.3s5.3-50.6 22.8-68c6.8-6.8 16.2-12.4 25.5-10.3s17 13.3 19.8 23.8c8.6 31.4-1.5 64.6-11.6 95.5" opacity=".2" fill="url(#wildLinearGradient9)" style="mix-blend-mode:overlay"/><path d="M1068.8 788.2l16.6 13c1.5 1.1 3.2 2.3 5 2s3.7-4.4 3.7-7.5a132.6 132.6 0 0 0-7.9-43.2" opacity=".4" fill="url(#wildLinearGradient10)" style="mix-blend-mode:multiply"/><path d="M994.1 516.5A429.3 429.3 0 0 0 1136.5 406c-28.8-2.1-57.7 7.4-81.9 23.1s-44.2 37.3-61.4 60.4" opacity=".4" fill="url(#wildLinearGradient11)" style="mix-blend-mode:multiply"/></g><path d="M1251.6 912.6a41.9 41.9 0 0 0-12.3-30.4 41.5 41.5 0 0 0-14.3-9.3c-4.3-1.6-8.8-2.6-13.3-4a378.3 378.3 0 0 1-46-18.3 444 444 0 0 1-43.5-23.4l-7.6-4.8-.2-4.6c-1.2-14.8-5.5-29.4-10.3-43.4-3.9-11.3-8.4-22.4-13.3-33.4-1.4-3-5.6-1.9-5.8 1.2s-.1 4.4-.2 6.5c-.3 8-1.6 24.1-1.6 24.1l-.9 6a10.4 10.4 0 0 1-17 6.5l-.7-.6q-9.8-8.6-19.2-17.9a360.4 360.4 0 0 1-32.2-36.6 402.8 402.8 0 0 1-27-40.3c-2.7-7.3-3.8-15.1-4.3-22.8-1.1-19.9 2.3-40 7.6-59.1a240.3 240.3 0 0 1 22-54.4 178 178 0 0 1 22.1-30.9c13.2-14.9 28.4-28 43.6-40.8s30.7-25 44.1-39.6c6.5-7.1 12.5-14.8 16.8-23.4a59.4 59.4 0 0 0 5-13.7 52 52 0 0 0 1.1-7.6q.1-1.9.1-3.9a6.5 6.5 0 0 0-.3-2.8 3 3 0 0 0-4.3-1.2c-1.6 1-1.7 3.5-2.1 5.2a48.9 48.9 0 0 1-5.4 12.1c-4.9 7.9-11.7 14.3-18.9 20.1a248.8 248.8 0 0 1-24.1 16.7l-25.6 15.7c-16.8 10.4-33.3 21.4-48.4 34.3a227 227 0 0 0-17.2 16.3c-42.1 22.9-67.1-60.8-68.2-64.6a360.6 360.6 0 0 1-7.1-38.7 480.3 480.3 0 0 1-4-59c0-4 0-8 .1-12 0-1.2.3-2.8-.3-3.9a3 3 0 0 0-4.7-.6c-1 1-1.1 3-1.4 4.4s-.7 3.9-1.1 5.9q-1.1 6-2 12a484.8 484.8 0 0 0-5.3 60.8c-.5 21.8.6 43.7 4.4 65.2s9.8 40.4 20.3 58.3q2.7 4.7 5.9 9.1c6.6 11.9 15.4 34.2 7.7 59.1l-2.9 9.3-.2.7-1.2 3.9q-1.2 4.5-2.3 9a15.1 15.1 0 0 1-21.9 7.3l-6.8-4.1a362.9 362.9 0 0 1-47-36.3c-5.4-5-10.6-10-15.7-15.3l-8-8.6a32.9 32.9 0 0 1-3.6-4v.2l-3.5-4.1a369.8 369.8 0 0 1-31.9-43.5 453.1 453.1 0 0 1-29.8-56.6c-4.2-9.5-8.1-19.1-12.3-28.6q-2.8-6.4-5.8-12.8l-2.5-5.2c-.7-1.4-1.3-3.5-2.6-4.4a3 3 0 0 0-4.6 1.4c-.5 1.6.1 3.8.2 5.4.4 4.2.9 8.4 1.4 12.6 1.2 10 2.5 20 4.2 29.9a289.4 289.4 0 0 0 16.8 61 323.6 323.6 0 0 0 29.8 57.4c5.3 8 10.8 15.8 16.7 23.3a344.6 344.6 0 0 0 37.3 40.6 332.4 332.4 0 0 0 50.9 38.6l5.1 3h.2l4.4 2.5a97.7 97.7 0 0 1 33.5 34.1l3.9 7.8 1.8 3.5v.2a446.8 446.8 0 0 0 28.5 46.9 413.9 413.9 0 0 0 37.4 46.3 479.7 479.7 0 0 0 91 76.3 497.1 497.1 0 0 0 51.5 29.2 325.8 325.8 0 0 0 42.6 17.8 42.7 42.7 0 0 0 8.6 1.8 41.6 41.6 0 0 0 46.1-40z" fill="none" stroke="#31323d" stroke-linecap="round" stroke-miterlimit="10" stroke-width="10"/><path d="M936.9 623.6c-5.2 20.6-7.1 43.5-1.6 58.9" fill="#ff8c2e"/><path d="M941.8 624.8l-.7 2.5-.8 2.8c-.3 1.1-.6 2.2-.9 3.6s-1.3 5.8-1.9 9.1c-.3 1.7-.6 3.4-.9 5.2s-.5 3.6-.7 5.4-.3 3.6-.4 5.4-.2 3.5-.1 5.2.1 3.3.1 4.9.2 3 .4 4.3.3 2.5.6 3.6.4 2 .6 2.7l.6 2.3v.2a2.5 2.5 0 0 1-4.8 1.5l-.9-2.5c-.3-.8-.5-1.8-.9-3s-.6-2.5-.9-3.9-.6-3-.8-4.6-.4-3.4-.6-5.2-.2-3.7-.3-5.6-.1-3.8 0-5.7.1-3.8.2-5.7.2-3.7.4-5.5c.3-3.6.8-6.9 1.2-9.7s.5-2.7.7-3.9.4-2.2.6-3l.5-2.5a5 5 0 0 1 9.8 1.9v.4z" fill="#31323d"/><path d="M984.9 514.4s26.7-5.5 32.6-1.7" fill="#ff8c2e"/><path d="M983.9 509.5l1.5-.2 3.8-.4c3.2-.3 7.4-.6 11.6-.8a71.2 71.2 0 0 1 11.9.4l2.4.5 1.9.6 1.3.7.5.3a2.4 2.4 0 0 1-2 4.4l-.7-.2h-.1l-.6-.2-1.2-.2h-1.8a65.5 65.5 0 0 0-10.7 1.3c-3.9.7-7.9 1.7-10.8 2.4l-3.5.9-1.3.4a5 5 0 0 1-2.7-9.7h.7z" fill="#31323d"/><path fill="#ff8c2e" d="M1114.5 822.4l-21.6-15.6"/><path d="M1111.6 826.5l-20.2-17.6a2.5 2.5 0 0 1 2.9-4.1l23.1 13.6a5 5 0 1 1-5.1 8.7zM1227.7 871.8l.3-.3.8-.8a28.4 28.4 0 0 1 2.8-2l1.9-1.1 2.2-1.1 2.4-1 2.5-.8 2.5-.7 2.5-.5 2.3-.3h6.3a2.5 2.5 0 0 1 .5 5h-.2l-1 .2-1.2.2-1.5.4-1.7.5-1.9.6-1.9.8-1.9.9-1.8 1.1-1.7 1.1-1.5 1.1-1.2 1.1-1.5 1.7-.3.4h-.1a5 5 0 0 1-7.6-6.5zM1188.2 950.3c.1-.1 0-.1 0-.1h-.1l-.3.4a5.1 5.1 0 0 0-.3.8 2.3 2.3 0 0 0-.1.6c0 .2-.1.4-.1.7a10.6 10.6 0 0 0 0 1.6 12.1 12.1 0 0 0 .2 1.8 18.8 18.8 0 0 0 .5 2c.2.7.4 1.3.7 2s.5 1.3.8 2l.9 1.8.8 1.6.8 1.3.6 1 .5.9h.1a2.5 2.5 0 0 1-4 3l-.8-.8-.9-1-1.1-1.3-1.3-1.6-1.4-1.9c-.4-.7-1-1.3-1.4-2.1s-.9-1.5-1.3-2.3a26.7 26.7 0 0 1-1.1-2.5 20.2 20.2 0 0 1-.9-2.6 19.4 19.4 0 0 1-.5-2.7c-.1-.4-.1-.9-.1-1.3a8.6 8.6 0 0 1 0-1.3 15 15 0 0 1 .3-2.4 13.3 13.3 0 0 1 .6-2l.3-.8.4-.7.3-.5a5 5 0 1 1 8.4 5.4l-.5.7z" fill="#31323d"/><path d="M1619.9 891.8s-6-27.4-35.3-14.9c0 0-26.9 15.2-22.8 58s45.3 55.1 74.4 47.1 25.7-35.5 25.7-35.5z" fill="#fcda86"/><path d="M1569.1 901.3v.2l-.3.7-.9 2.8c-.4 1.2-.7 2.7-1.1 4.5s-.7 3.7-.9 5.9-.2 2.2-.3 3.4-.1 2.4-.1 3.6a70.1 70.1 0 0 0 .5 7.8 71.1 71.1 0 0 0 1.5 8.2 79.7 79.7 0 0 0 2.5 8.3c.5 1.6 1.1 2.7 1.6 4l.9 2 1 1.9a57.9 57.9 0 0 0 4.3 7 52.1 52.1 0 0 0 5 5.9 50.6 50.6 0 0 0 10.1 8l4 2.2c2.3 1.1 3.7 1.5 3.6 1.5a2.5 2.5 0 1 1-.8 4.9h-1.3l-3.4-.7a39.5 39.5 0 0 1-5.1-1.6 43.9 43.9 0 0 1-6.2-3 46.7 46.7 0 0 1-6.7-4.7 51.5 51.5 0 0 1-6.5-6.5 56.5 56.5 0 0 1-5.6-8.1l-1.2-2.2-1.1-2.3c-.7-1.6-1.4-3.2-1.9-4.6a69 69 0 0 1-2.8-9.6 64.2 64.2 0 0 1-1.3-9.6 57.5 57.5 0 0 1 .2-9.1c.1-1.4.3-2.8.5-4.2s.5-2.6.8-3.8a47.4 47.4 0 0 1 2.1-6.5 42 42 0 0 1 2.2-4.8 32.7 32.7 0 0 1 1.8-2.9l.5-.8.2-.3a2.5 2.5 0 1 1 4.2 2.5z" fill="#31323d"/><path d="M1591.4 919.1a41.9 41.9 0 0 1 10.7-31.1 41.5 41.5 0 0 1 13.8-10c4.2-1.9 8.7-3 13-4.7a378.3 378.3 0 0 0 45-20.7 444 444 0 0 0 42.2-25.6l7.3-5.2q-.1-2.3 0-4.6c.4-14.9 3.9-29.6 8-43.8 3.3-11.5 7.2-22.8 11.5-34 1.2-3.1 5.5-2.2 5.9.9s.3 4.3.5 6.5c.7 8 2.8 23.9 2.8 23.9l1.2 6a10.4 10.4 0 0 0 17.4 5.6l.7-.6q9.4-9.1 18.2-18.9a360.4 360.4 0 0 0 30.3-38.2 402.8 402.8 0 0 0 24.9-41.6c2.3-7.4 3-15.3 3.1-23 .1-19.9-4.4-39.8-10.6-58.7a240.3 240.3 0 0 0-24.8-53.2 178 178 0 0 0-23.7-29.7c-14-14.2-29.8-26.5-45.7-38.5s-32-23.4-46.1-37.2c-6.9-6.7-13.2-14.1-18-22.5a59.4 59.4 0 0 1-5.7-13.5 52 52 0 0 1-1.5-7.5q-.2-1.9-.3-3.9a6.5 6.5 0 0 1 .2-2.8 3 3 0 0 1 4.2-1.4c1.7 1 1.8 3.5 2.4 5.1a48.9 48.9 0 0 0 6 11.8c5.3 7.6 12.5 13.7 19.9 19.1a248.8 248.8 0 0 0 25 15.4l26.4 14.4c17.3 9.5 34.4 19.6 50.1 31.7a227 227 0 0 1 18.1 15.4c43.2 20.7 63.8-64.2 64.7-68.1a360.6 360.6 0 0 0 5.1-39 480.3 480.3 0 0 0 .9-59.1c-.2-4-.4-8-.7-12-.1-1.2-.5-2.8.1-3.9a3 3 0 0 1 4.7-.9c1.1 1 1.3 3 1.6 4.3l1.4 5.8q1.4 5.9 2.6 11.9a484.8 484.8 0 0 1 8.5 60.4c1.6 21.7 1.7 43.7-1 65.3s-7.7 40.8-17.2 59.2q-2.5 4.8-5.4 9.4c-6 12.2-13.6 34.9-4.6 59.5l3.4 9.1.2.7 1.4 3.9q1.5 4.4 2.8 8.9a15.1 15.1 0 0 0 22.2 6.2l6.6-4.5a362.9 362.9 0 0 0 44.8-38.9c5.1-5.2 10.1-10.6 14.8-16.1q3.9-4.4 7.6-9a32.9 32.9 0 0 0 3.4-4.2v.2l3.3-4.3a369.8 369.8 0 0 0 29.5-45.1 453.1 453.1 0 0 0 27-58c3.7-9.7 7.1-19.5 10.8-29.2q2.5-6.5 5.1-13l2.2-5.3c.6-1.4 1.1-3.6 2.3-4.6a3 3 0 0 1 4.7 1.2c.6 1.5.1 3.8 0 5.4-.2 4.2-.5 8.4-.8 12.7-.7 10-1.5 20.1-2.6 30.1a289.4 289.4 0 0 1-13.5 61.8 323.6 323.6 0 0 1-26.7 58.9c-4.8 8.2-9.9 16.4-15.4 24.2a344.6 344.6 0 0 1-35.2 42.5 332.4 332.4 0 0 1-48.8 41.2l-4.9 3.3-.2.2-4.2 2.8a97.7 97.7 0 0 0-31.6 35.8c-1.1 2.7-2.3 5.4-3.4 8l-1.7 3.6v.2a446.8 446.8 0 0 1-26 48.3 413.9 413.9 0 0 1-34.9 48.2 479.7 479.7 0 0 1-86.9 81 497.1 497.1 0 0 1-49.9 31.9 325.8 325.8 0 0 1-41.6 20 42.7 42.7 0 0 1-8.5 2.3 41.6 41.6 0 0 1-48.4-38.1z" fill="#cc8e64"/><g clip-path="url(#wildClipPath2)"><path d="M1892.2 619.6s9.4 55.1-3.1 95.9 177.1-100.1 177.1-100.1l35-223.5-41.9-9.2z" opacity=".2" fill="url(#wildLinearGradient12)" style="mix-blend-mode:multiply"/><path d="M1593 915.6c-2-2 4.9-10.9 2.9-12.9 1.6 30 16.1 36.6 34.5 35.7s41.6-17.1 57.6-26.1c41.6-23.5 75.4-54.7 109.7-90.2s59.5-68.5 93.9-114c5.4-7.1 10.8-13.2 18.9-9.6s8.7 12.5 8.8 20.3c.3 51-24 99.9-58.3 137.7s-77.9 65.8-122.4 90.7c-24.2 13.5-49.5 26.6-77.1 29.4s-58.1-6.8-73-30.1" opacity=".4" fill="url(#wildLinearGradient13)" style="mix-blend-mode:multiply"/><path d="M1872.7 551.5c1.8-16.6 9.4-33.7 14.5-49.6 18.1-56.6 20.8-133.9 3.1-190.6 16 3.6 23.8 21.4 27.9 37.3a294.2 294.2 0 0 1 7.6 104.1c-3.4 32.8-13.1 98.4-32.1 126.2-15.6 22.5-22.6-13.1-21-27.4z" opacity=".4" fill="url(#wildLinearGradient14)" style="mix-blend-mode:multiply"/><path d="M1996.3 547.5a756.1 756.1 0 0 1-99.7 125.6c-1.6-17.5-3.1-35.7 3.8-51.9 9-21.2 30.3-34.2 50.3-45.7" opacity=".4" fill="url(#wildLinearGradient15)" style="mix-blend-mode:multiply"/><path d="M1821.8 746.7c-21.8 37.9-35.3 58.4-63.6 89.4s-119.7 101-155.4 82.6c-25.9-13.3 26.2-45.4 26.2-45.4 5.4-8.8 74.7-140 111-151.4 26-8.2 110.1-89 107.2-50.2-1.7 23.3-9.4 47.2-25.4 75z" opacity=".2" fill="url(#wildLinearGradient16)" style="mix-blend-mode:overlay"/><path d="M2072.9 398.3c-9.4 68.1-39.5 130.2-78 187.2-9.2 13.7-83.2 87-99.7 87.4 43.7-62.2 101.3-146.1 118.7-191.6 9.4-24.5 19.2-49.7 37.3-68.7a36 36 0 0 1 6.9 23.5" opacity=".2" fill="url(#wildLinearGradient17)" style="mix-blend-mode:overlay"/><path d="M1840.8 673.1c16.3-18.8 18.3-46.4 13.5-70.8-8.8-44.9-37.3-84.2-72.6-113.4s-69.7-46.5-108.4-81.9c-2-1.8-16 12.7-18.8 13-4.9.6-8.2 5.9-8.3 10.8s2.1 9.7 4.4 14.1a529.1 529.1 0 0 0 179.5 201.3" opacity=".2" fill="url(#wildLinearGradient18)" style="mix-blend-mode:overlay"/><path d="M1845.1 529.1c-6.9 1.8-23.3 2.4-29.8-1.7-3.9-2.5-15.6-17.9-11-19.9 10.1-4.6 16.6-.1 27.6-.9 7.7-.6 14-5.9 21.7-4.8 3.4.5 22.9-32 24.5-29.7s-5.3 32.9-7.1 36.1c-6.1 10.6-16.9 18.5-25.9 20.9z" opacity=".2" fill="url(#wildLinearGradient19)" style="mix-blend-mode:overlay"/><path d="M1844.6 688.1c12.7-21.1 22-44.9 22.7-69.6s-7.9-50.2-26.3-66.7c-7.1-6.4-16.8-11.5-26-9s-16.2 14.2-18.6 24.8c-7 31.8 4.9 64.4 16.6 94.8" opacity=".2" fill="url(#wildLinearGradient20)" style="mix-blend-mode:overlay"/><path d="M1767.5 785.3l-15.9 13.8c-1.4 1.2-3 2.5-4.9 2.3s-4-4.2-4.1-7.3a132.6 132.6 0 0 1 5.6-43.5" opacity=".4" fill="url(#wildLinearGradient21)" style="mix-blend-mode:multiply"/><path d="M1827.8 510.1a429.3 429.3 0 0 1-148-102.9c28.7-3.6 58 4.4 83 18.8s46.1 34.9 64.5 57.1" opacity=".4" fill="url(#wildLinearGradient22)" style="mix-blend-mode:multiply"/></g><path d="M1591.4 919.1a41.9 41.9 0 0 1 10.7-31.1 41.5 41.5 0 0 1 13.8-10c4.2-1.9 8.7-3 13-4.7a378.3 378.3 0 0 0 45-20.7 444 444 0 0 0 42.2-25.6l7.3-5.2q-.1-2.3 0-4.6c.4-14.9 3.9-29.6 8-43.8 3.3-11.5 7.2-22.8 11.5-34 1.2-3.1 5.5-2.2 5.9.9s.3 4.3.5 6.5c.7 8 2.8 23.9 2.8 23.9l1.2 6a10.4 10.4 0 0 0 17.4 5.6l.7-.6q9.4-9.1 18.2-18.9a360.4 360.4 0 0 0 30.3-38.2 402.8 402.8 0 0 0 24.9-41.6c2.3-7.4 3-15.3 3.1-23 .1-19.9-4.4-39.8-10.6-58.7a240.3 240.3 0 0 0-24.8-53.2 178 178 0 0 0-23.7-29.7c-14-14.2-29.8-26.5-45.7-38.5s-32-23.4-46.1-37.2c-6.9-6.7-13.2-14.1-18-22.5a59.4 59.4 0 0 1-5.7-13.5 52 52 0 0 1-1.5-7.5q-.2-1.9-.3-3.9a6.5 6.5 0 0 1 .2-2.8 3 3 0 0 1 4.2-1.4c1.7 1 1.8 3.5 2.4 5.1a48.9 48.9 0 0 0 6 11.8c5.3 7.6 12.5 13.7 19.9 19.1a248.8 248.8 0 0 0 25 15.4l26.4 14.4c17.3 9.5 34.4 19.6 50.1 31.7a227 227 0 0 1 18.1 15.4c43.2 20.7 63.8-64.2 64.7-68.1a360.6 360.6 0 0 0 5.1-39 480.3 480.3 0 0 0 .9-59.1c-.2-4-.4-8-.7-12-.1-1.2-.5-2.8.1-3.9a3 3 0 0 1 4.7-.9c1.1 1 1.3 3 1.6 4.3l1.4 5.8q1.4 5.9 2.6 11.9a484.8 484.8 0 0 1 8.5 60.4c1.6 21.7 1.7 43.7-1 65.3s-7.7 40.8-17.2 59.2q-2.5 4.8-5.4 9.4c-6 12.2-13.6 34.9-4.6 59.5l3.4 9.1.2.7 1.4 3.9q1.5 4.4 2.8 8.9a15.1 15.1 0 0 0 22.2 6.2l6.6-4.5a362.9 362.9 0 0 0 44.8-38.9c5.1-5.2 10.1-10.6 14.8-16.1q3.9-4.4 7.6-9a32.9 32.9 0 0 0 3.4-4.2v.2l3.3-4.3a369.8 369.8 0 0 0 29.5-45.1 453.1 453.1 0 0 0 27-58c3.7-9.7 7.1-19.5 10.8-29.2q2.5-6.5 5.1-13l2.2-5.3c.6-1.4 1.1-3.6 2.3-4.6a3 3 0 0 1 4.7 1.2c.6 1.5.1 3.8 0 5.4-.2 4.2-.5 8.4-.8 12.7-.7 10-1.5 20.1-2.6 30.1a289.4 289.4 0 0 1-13.5 61.8 323.6 323.6 0 0 1-26.7 58.9c-4.8 8.2-9.9 16.4-15.4 24.2a344.6 344.6 0 0 1-35.2 42.5 332.4 332.4 0 0 1-48.8 41.2l-4.9 3.3-.2.2-4.2 2.8a97.7 97.7 0 0 0-31.6 35.8c-1.1 2.7-2.3 5.4-3.4 8l-1.7 3.6v.2a446.8 446.8 0 0 1-26 48.3 413.9 413.9 0 0 1-34.9 48.2 479.7 479.7 0 0 1-86.9 81 497.1 497.1 0 0 1-49.9 31.9 325.8 325.8 0 0 1-41.6 20 42.7 42.7 0 0 1-8.5 2.3 41.6 41.6 0 0 1-48.4-38.1z" fill="none" stroke="#31323d" stroke-linecap="round" stroke-miterlimit="10" stroke-width="10"/><path d="M1890.5 614.1c6.3 20.3 9.4 43 4.7 58.7" fill="#ff8c2e"/><path d="M1895.3 612.6l.6 2.5.7 2.9c.3 1.2.6 2.5.9 3.9s1.2 6.1 1.7 9.7c.3 1.8.5 3.6.7 5.5s.4 3.8.5 5.7l.3 5.7c.1 1.9.1 3.8 0 5.6s-.2 3.6-.3 5.2-.4 3.2-.6 4.7-.4 2.8-.7 3.9-.5 2.2-.7 3l-.8 2.6a2.5 2.5 0 0 1-4.8-1.2v-.2l.5-2.4c.2-.7.3-1.7.4-2.8s.2-2.3.4-3.6.1-2.8.2-4.3 0-3.2-.1-4.9-.3-3.4-.4-5.2-.4-3.6-.7-5.4-.6-3.6-.9-5.3-.7-3.5-1.1-5.1c-.8-3.3-1.6-6.4-2.4-9s-.8-2.5-1.1-3.5l-.9-2.7-.8-2.4a5 5 0 0 1 9.5-3.3v.4z" fill="#31323d"/><path d="M1836.9 507.5s-26.9-4.1-32.6 0" fill="#ff8c2e"/><path d="M1836.2 512.4l-1.3-.3-3.6-.7c-3-.6-7-1.3-11-1.8a65.4 65.4 0 0 0-10.8-.7l-1.8.2-1.2.2-.6.2h-.2l-.7.3a2.4 2.4 0 0 1-2.2-4.3l.5-.3 1.3-.7 1.9-.7 2.3-.6a71.1 71.1 0 0 1 11.9-1.1c4.3-.1 8.5 0 11.6.2l3.8.2h1.5a5 5 0 0 1-.7 10h-.8z" fill="#31323d"/><path fill="#ff8c2e" d="M1723.6 821.9l20.8-16.7"/><path d="M1720.4 818l22.4-14.8a2.5 2.5 0 0 1 3.1 3.9l-19.3 18.7a5 5 0 0 1-7-7.2zM1605.8 884.1h-.1l-.3-.4-1.6-1.6-1.3-1-1.5-1.1-1.7-1-1.9-1-2-.8-2-.7-1.9-.5-1.7-.4-1.5-.3-1.2-.2h-1.1a2.5 2.5 0 0 1 .2-5h6.3l2.3.2 2.5.3 2.6.5 2.5.7 2.4.9 2.2 1 2 1a28.4 28.4 0 0 1 2.9 1.9l.9.7.3.3a5 5 0 1 1-7.3 6.5zM1664.3 947l.4.5.4.7.4.8a13.3 13.3 0 0 1 .7 1.9 15.1 15.1 0 0 1 .4 2.4 8.6 8.6 0 0 1 .1 1.3v1.3a19.5 19.5 0 0 1-.4 2.7 20.2 20.2 0 0 1-.7 2.7 26.7 26.7 0 0 1-1 2.6c-.3.8-.8 1.6-1.2 2.4s-.9 1.5-1.3 2.2l-1.3 1.9-1.2 1.7-1.1 1.3-.8 1-.7.9a2.5 2.5 0 0 1-4.2-2.8h.1l.5-.9.6-1.1.7-1.4.8-1.7a17.9 17.9 0 0 0 .8-1.9c.2-.7.5-1.3.7-2s.4-1.4.6-2a18.8 18.8 0 0 0 .4-2 12.1 12.1 0 0 0 .1-1.8 10.6 10.6 0 0 0-.1-1.6c0-.2-.1-.4-.1-.7l-.2-.6a5.1 5.1 0 0 0-.3-.8l-.3-.4h-.1v.1a5 5 0 0 1 7-7.2z" fill="#31323d"/></g></g><g id="eye"><defs><clipPath id="eyeClipPath"><circle cx="1696" cy="1101.3" r="129.7" fill="#fff" stroke="#31323d" stroke-width="10" stroke-miterlimit="10" transform="translate(381.9 2638.3) rotate(-82.5)" stroke-linecap="round"/></clipPath><clipPath id="eyeClipPath2"><circle cx="1168.9" cy="1127" r="129.7" fill="#fff" stroke="#31323d" stroke-width="10" stroke-miterlimit="10" transform="translate(-137.7 163) rotate(-7.5)" stroke-linecap="round"/></clipPath></defs><circle cx="1696" cy="1101.3" r="129.7" fill="#fff" transform="translate(381.9 2638.3) rotate(-82.5)"/><g clip-path="url(#eyeClipPath)"><circle cx="1653.5" cy="1132.4" r="87.6" fill="#ef4b62" transform="translate(-134.2 226.5) rotate(-7.5)"/><circle cx="1657.1" cy="1133.7" r="64.7" fill="#31323d" transform="translate(-134.3 227) rotate(-7.5)"/><circle cx="1679.1" cy="1078.3" r="35.2" fill="#fff" transform="translate(-126.9 229.4) rotate(-7.5)"/></g><circle cx="1696" cy="1101.3" r="129.7" fill="none" stroke="#31323d" stroke-width="10" stroke-miterlimit="10" transform="translate(381.9 2638.3) rotate(-82.5)" stroke-linecap="round"/><path fill="none" stroke="#31323d" stroke-width="30" stroke-miterlimit="10" d="M1828.1 1011.3c-65.3 5.4-115.7-35.5-151.7-66.9" stroke-linecap="round"/><circle cx="1168.9" cy="1127" r="129.7" fill="#fff" transform="translate(-137.7 163) rotate(-7.5)"/><g clip-path="url(#eyeClipPath2)"><circle cx="1211.4" cy="1158.2" r="87.6" fill="#ef4b62" transform="translate(-141.4 168.8) rotate(-7.5)"/><circle cx="1215" cy="1159.4" r="64.7" fill="#31323d" transform="translate(-141.5 169.3) rotate(-7.5)"/><circle cx="1237.1" cy="1104" r="35.2" fill="#fff" transform="translate(-134 171.7) rotate(-7.5)"/></g><circle cx="1168.9" cy="1127" r="129.7" fill="none" stroke="#31323d" stroke-width="10" stroke-miterlimit="10" transform="translate(-137.7 163) rotate(-7.5)" stroke-linecap="round"/><path fill="none" stroke="#31323d" stroke-width="30" stroke-miterlimit="10" d="M1036.8 1037c65.3 5.4 115.7-35.5 151.7-66.9" stroke-linecap="round"/></g><g id="mouth"><path d="M1344,1396.3s1.6,72.7,78.5,73c74.3,0.3,85.6-67.3,85.6-67.3s-28,29.3-76.1,28.1S1344,1396.3,1344,1396.3Z" fill="#595959" opacity=".2" style="mix-blend-mode:multiply"/><path d="M1354.6,1175.2a14,14,0,0,1,3.8-16c9.8-8.9,30.8-22,70.2-22.6s58.2,11.5,67.2,20.2a13.8,13.8,0,0,1,3,16.1h0c-3.5,7.3-11.2,12.2-20,12.5-11.1.4-26.4,3.6-35.9,16.2a13.6,13.6,0,0,1-2,2.2l-0.3.3c-8,6.8-20.7,6.3-28-1.1h0s-8.2-12.4-37.9-14.2c-8.9-.5-16.5-5.8-19.7-13.3v-0.3Z" fill="#31323d"/><path d="M1512.1,1399.4l-0.9,2a25.5,25.5,0,0,1-1.2,2.4c-0.5.9-1.1,2.1-1.9,3.3a58.2,58.2,0,0,1-6,8,71.6,71.6,0,0,1-9.7,8.8,80.6,80.6,0,0,1-13.2,8c-2.5,1.2-5,2.3-7.7,3.3s-5.5,1.9-8.3,2.7-5.8,1.5-8.8,2.1-6.1,1-9.2,1.3a117.1,117.1,0,0,1-18.8.4,121.6,121.6,0,0,1-36-7.5l-2.1-.8-1-.4h-0.6l-0.5-.2-1.9-.8-1.9-.9c-2.7-1.2-5.1-2.5-7.5-3.8a101.1,101.1,0,0,1-12.7-8.3,83.4,83.4,0,0,1-16-16l-1.2-1.5-1-1.4-1.5-2.3-1.1-1.9a2.5,2.5,0,0,1,3.9-3.1h0.1l1.5,1.5,1.8,1.7,2.5,2.3c1.9,1.7,4.3,3.6,7.1,5.6a104,104,0,0,0,9.8,6.3,122.3,122.3,0,0,0,12.3,6.1l6.9,2.7,1.8,0.6,1.9,0.7,0.5,0.2h0.4l0.9,0.3,1.9,0.6a136.7,136.7,0,0,0,15.8,3.7,132.8,132.8,0,0,0,33.3,1.6c2.7-.2,5.4-0.5,8.1-0.9s5.3-.8,7.8-1.4,5-1.2,7.4-1.9l7-2.3a86.2,86.2,0,0,0,12.2-5.5,78.9,78.9,0,0,0,9.5-6.2l1.9-1.5,1.7-1.5c1.1-.9,2.1-1.9,3-2.8l1.2-1.2,1-1.1a21.8,21.8,0,0,0,1.6-1.9l1.4-1.7A2.5,2.5,0,0,1,1512.1,1399.4Z" fill="#31323d"/><path d="M1277,1339.8l0.2-.7,0.6-2a67.9,67.9,0,0,1,2.8-7.5,61.4,61.4,0,0,1,6.2-10.8,63,63,0,0,1,11.1-11.9,82.8,82.8,0,0,1,16.1-10.3,141.5,141.5,0,0,1,19.7-7.8c7-2.2,14.2-4.2,21.6-6s14.8-3.6,22-5.6a134.9,134.9,0,0,0,20.7-7.2c6.4-3,11.9-6.7,15.6-11.3a28.9,28.9,0,0,0,6.3-15.5,39.4,39.4,0,0,0,.3-4.2v-0.5h0c0-.3,0,0.4,0,0.3h0v-3.8l-0.3-8.9-1.4-38.2a8,8,0,0,1,16-.6c0,0.1,0,.2,0,0.3v38.3q0,4.3,0,9v3.8h0c0-.1,0,0.7,0,0.4h0v0.7a53.1,53.1,0,0,1-.7,5.5,45.5,45.5,0,0,1-3.5,11.3,40.3,40.3,0,0,1-6.9,10.4,46.6,46.6,0,0,1-9.7,8,68.4,68.4,0,0,1-10.9,5.5,145.1,145.1,0,0,1-22.8,6.6c-7.6,1.7-15.2,3-22.5,4.4s-14.5,2.9-21.4,4.7a134.6,134.6,0,0,0-19.1,6.4,77,77,0,0,0-15.5,8.8,58.1,58.1,0,0,0-10.8,10.4,57.3,57.3,0,0,0-6.3,9.8,64.4,64.4,0,0,0-3,6.9l-0.7,1.9-0.2.7A1.6,1.6,0,0,1,1277,1339.8Z" fill="#31323d"/><path d="M1578.5,1339.3l-0.2-.7-0.7-1.9a66.2,66.2,0,0,0-3.3-6.9,59.4,59.4,0,0,0-6.6-9.7,60.6,60.6,0,0,0-11.1-10.2,79.5,79.5,0,0,0-15.7-8.6,136.4,136.4,0,0,0-19.3-6.2c-6.9-1.7-14.1-3.1-21.5-4.5s-15-2.6-22.7-4.2a148.7,148.7,0,0,1-23-6.3,70.5,70.5,0,0,1-11-5.3,48.6,48.6,0,0,1-9.9-7.7,41.6,41.6,0,0,1-7.3-10.2,46.3,46.3,0,0,1-3.9-11.2,55.8,55.8,0,0,1-.9-5.5v-1h0v-0.4h0V1235l-0.3-9-1.4-38.4a8,8,0,0,1,16-.6v51.3h0v-0.3h0v0.8c0.1,1.4.2,2.8,0.4,4.2a30,30,0,0,0,7,15.4c3.9,4.5,9.6,8.2,16,11.1a138.4,138.4,0,0,0,20.9,7c7.3,1.9,14.8,3.6,22.2,5.4s14.7,3.6,21.7,5.8a143.2,143.2,0,0,1,19.9,7.7,85.4,85.4,0,0,1,16.4,10.2,65.5,65.5,0,0,1,11.4,11.7,63.5,63.5,0,0,1,6.5,10.7,69.7,69.7,0,0,1,3,7.4l0.7,2,0.2,0.7A1.6,1.6,0,0,1,1578.5,1339.3Z" fill="#31323d"/><path d="M1486.9,1226.8l7.3-1.5c4.8-1,11.9-2.4,20.9-4a704,704,0,0,1,75.1-9,689,689,0,0,1,106.8,1.3c19.5,1.8,39.5,4.5,59.7,8.2s40.5,8.4,60.5,14.2,39.8,12.4,58.8,19.9l14.2,5.8,13.8,6.1,6.8,3.1,6.7,3.2c4.5,2.2,8.9,4.2,13.2,6.5l12.9,6.7,12.4,6.9,3.1,1.7,3,1.8,6,3.5,5.9,3.5,5.7,3.6c15.2,9.4,29.1,19,41.6,28.2s23.7,18.2,33.4,26.3c4.8,4.1,9.3,7.9,13.4,11.6l5.9,5.2,5.3,4.9c3.4,3.1,6.3,5.9,8.8,8.3l3.5,3.4,2.9,2.9,5.3,5.3-5.4-5.2-2.9-2.8-3.6-3.3c-2.6-2.4-5.5-5.2-8.9-8.2l-5.3-4.8-5.9-5.1c-4.1-3.6-8.7-7.3-13.6-11.4-9.8-7.9-21-16.7-33.7-25.7s-26.6-18.4-41.9-27.5l-5.8-3.5-5.9-3.4-6-3.4-3-1.7-3.1-1.6-12.5-6.7-12.9-6.4c-4.3-2.2-8.8-4.2-13.2-6.3l-6.7-3.1-6.9-3-13.9-5.9-14.2-5.5c-19.1-7.1-38.7-13.5-58.7-18.9s-40.2-9.8-60.2-13.1-39.9-5.7-59.2-7.2a681.3,681.3,0,0,0-105.6.3,694.9,694.9,0,0,0-74,10c-8.9,1.7-15.8,3.2-20.5,4.2l-7.3,1.7h0a5,5,0,1,1-2.2-9.8h0.1Z" fill="#31323D"/><path d="M1374.6,1233.1l-4.6-.9c-3-.6-7.4-1.4-13.1-2.2a355.2,355.2,0,0,0-47.3-3.7,343.7,343.7,0,0,0-66.9,5.6,312.1,312.1,0,0,0-36.8,9.2,298.7,298.7,0,0,0-36.5,14.2,277.7,277.7,0,0,0-34.3,19.2c-5.5,3.5-10.6,7.3-15.8,11s-10.1,7.8-14.6,11.9l-3.5,3-3.4,3.1-6.6,6.2-6.2,6.3c-2,2.1-3.9,4.2-5.9,6.3a289.4,289.4,0,0,0-20.2,24.9c-5.8,8.1-10.8,15.6-14.9,22.6l-3,5.1-2.7,4.7c-1.6,3.1-3.2,5.9-4.5,8.5-2.7,5.2-4.6,9.3-5.9,12.1l-2,4.3,1.9-4.4c1.2-2.9,3.1-7,5.6-12.3,1.2-2.6,2.7-5.5,4.3-8.6l2.6-4.8,2.9-5.1c3.9-7.1,8.8-14.8,14.5-23a291.3,291.3,0,0,1,19.7-25.5c1.9-2.1,3.8-4.4,5.8-6.5l6.1-6.5,6.5-6.4,3.3-3.2,3.5-3.1c4.6-4.3,9.5-8.2,14.5-12.3s10.3-7.9,15.8-11.6a282.2,282.2,0,0,1,34.3-20.3,304.1,304.1,0,0,1,36.9-15.4,318.4,318.4,0,0,1,37.3-10.3,351.3,351.3,0,0,1,68.3-7.3,364.3,364.3,0,0,1,48.6,2.7c5.8,0.7,10.4,1.5,13.6,2l4.8,0.8a5,5,0,0,1-1.7,9.8h-0.2Z" fill="#31323D"/><path d="M733.9,1356.3l5.5-4.6c3.6-3,8.9-7.3,15.9-12.7,13.8-10.7,33.9-25.6,59.3-41.7a739.7,739.7,0,0,1,90.2-48.7c17.1-7.8,35.1-15.1,53.6-21.8s37.7-12.7,57.1-17.9,39-9.6,58.4-13l14.6-2.4,3.7-.6,3.6-.5,7.2-1,7.1-1,7.2-.8,7.1-.8,3.5-.4,3.5-.3,13.9-1.2,13.7-.8c4.5-.3,9-0.4,13.4-0.6l6.6-.2h31.7l12,0.3,5.8,0.2,5.7,0.3,11,0.6,10.5,0.8,10,0.9,9.4,1,8.8,1,8.2,1.1,14.4,2.1,11.6,1.9,8.6,1.5,7.1,1.3a5,5,0,0,1-1.8,9.8h-0.2l-7-1.4-8.4-1.6-11.4-2-14.2-2.3-8.1-1.2-8.7-1.1-9.3-1.1-9.9-1-10.4-.9-10.9-.8-5.6-.4-5.8-.3-11.8-.5-12.2-.3h-25.6c-4.4.1-8.8,0.1-13.3,0.4l-13.6.6-13.8,1-3.5.3-3.5.3-7,.7-7.1.7-7.2.9-7.2.9-3.6.4-3.6.5-14.5,2.2c-19.3,3.1-38.9,7.2-58.2,12s-38.4,10.5-57,16.9-36.6,13.4-53.7,20.8a737.3,737.3,0,0,0-90.6,47.2c-25.6,15.6-45.9,30.2-59.8,40.7-7,5.2-12.4,9.5-16.1,12.4Z" fill="#31323D"/><path d="M1510.4,1198.3l93.6-11.7,45.3-5.7,24.7-3.1,12.8-1.6,6.6-.8,6.6-.7,6.6-.7,6.7-.6,13.7-.9c2.3-.2,4.6-0.2,6.9-0.3l6.9-.2,7-.2h7c9.3-.1,18.7.5,28.2,1l14.1,1.2,3.5,0.3,3.5,0.4,7.1,0.9,7.1,0.9,7,1.1,7,1.1,3.5,0.6,3.5,0.7,13.8,2.8,13.6,3.3,3.4,0.8,3.4,0.9,6.7,1.9,6.7,1.9,6.5,2.1,6.5,2.1c2.2,0.7,4.3,1.3,6.4,2.1l12.6,4.6,6.2,2.4,6.1,2.5,6,2.5,5.9,2.6,11.5,5.2,11,5.5,10.7,5.5,10.3,5.4,19.5,10.2,83.5,43.7-84.3-42.3-19.7-9.9-10.4-5.2-10.7-5.3-11.1-5.3-11.5-5-5.9-2.5-6-2.3-6.1-2.4-6.2-2.3-12.6-4.3c-2.1-.8-4.3-1.4-6.4-2l-6.5-2-6.5-2-6.6-1.7-6.7-1.7-3.3-.9-3.4-.8-13.6-3-13.8-2.5-3.4-.6-3.5-.5-7-1-7-1-7-.8-7-.7-3.5-.4-3.5-.3-14-1c-9.3-.3-18.6-0.7-27.8-0.5h-6.9l-6.9.3-6.8.3c-2.3.1-4.5,0.2-6.8,0.4l-13.4,1.1-6.6.7-6.6.8-6.6.8-6.4.9-12.8,1.8-24.7,3.5-45.2,6.4-93.3,13.2a5,5,0,0,1-1.4-9.9h0.1Z" fill="#31323D"/><path d="M1359.1,1254.1l-0.6-.2-1.7-.5c-1.5-.4-3.8-1-6.8-1.6a118.2,118.2,0,0,0-25-2.5,106.7,106.7,0,0,0-16.7,1.5,93.4,93.4,0,0,0-18.1,5,86.7,86.7,0,0,0-17.8,9.3l-2.2,1.5-2,1.5-4.1,3.3a96.1,96.1,0,0,0-7.6,7.3,98.4,98.4,0,0,0-12.6,16.8,106.3,106.3,0,0,0-8.7,18.5,110.3,110.3,0,0,0-4.9,18.6,119.6,119.6,0,0,0-1.8,17.2,117.8,117.8,0,0,0,.5,14.7c0.4,4.4,1,8.1,1.5,11.2s1.1,5.5,1.6,7.1l0.6,2.5-0.7-2.5c-0.5-1.6-1.1-4-1.9-7.1s-1.5-6.8-2-11.2a119.1,119.1,0,0,1-1.1-14.8,121.5,121.5,0,0,1,1-17.6,113,113,0,0,1,4.2-19.2,109.9,109.9,0,0,1,8.2-19.5,102.9,102.9,0,0,1,12.4-18.1,101.3,101.3,0,0,1,7.7-8c1.4-1.2,2.7-2.5,4.2-3.7l2.2-1.8,2.1-1.6a93.1,93.1,0,0,1,18.6-10.8,100.6,100.6,0,0,1,19.2-6.2,114.8,114.8,0,0,1,17.9-2.4,127.2,127.2,0,0,1,27,1.5c3.2,0.5,5.8,1.1,7.5,1.5l2,0.5,0.6,0.2a5,5,0,1,1-2.5,9.7h-0.2Z" fill="#31323D"/><path d="M1511.4,1245.9l2.7-.4,7.9-1.1,5.6-.4,3.2-.2h3.4a128.9,128.9,0,0,1,15.9.9,121.4,121.4,0,0,1,38,11.2,115.4,115.4,0,0,1,19,11.7,106.3,106.3,0,0,1,16.7,15.8,102.8,102.8,0,0,1,7,9.2c1,1.6,2.1,3.2,3,4.9l1.5,2.5,1.3,2.5c0.9,1.6,1.7,3.4,2.5,5.1s1.4,3.4,2.1,5.2a103.1,103.1,0,0,1,6.5,30.7,114.5,114.5,0,0,1-.4,18.3,128.7,128.7,0,0,1-5.6,26.7c-1,3.1-1.9,5.6-2.6,7.2l-1.1,2.5,0.9-2.5c0.6-1.7,1.4-4.1,2.3-7.3a127.8,127.8,0,0,0,4.5-26.7,112.5,112.5,0,0,0-.3-18,100.1,100.1,0,0,0-7.5-29.5c-0.7-1.6-1.5-3.3-2.3-4.9s-1.6-3.2-2.6-4.8a95.2,95.2,0,0,0-12.9-17.7,100.9,100.9,0,0,0-16.4-14.3,109.1,109.1,0,0,0-18.4-10.3,113.8,113.8,0,0,0-36-9,120.1,120.1,0,0,0-14.8-.3l-3.2.2-3,.3-5.2.6-7.2,1.3-2.6.6a5,5,0,1,1-2-9.8h0.2Z" fill="#31323D"/></g></svg>